# File generated by ImageToStl.com - Free Image and 3D model conversion tools

mtllib CarModel.mtl

o obj1
v -0.34941334 3.59597421 0.69764608
v -0.32934758 3.49590063 0.66604424
v -0.26851442 3.55285501 0.6383391
v -0.25116685 3.44796205 0.61141974
v -0.2408967 3.38550806 0.63825226
v -0.24322882 3.39793158 0.58870381
v -0.33139303 3.45154023 0.5980432
v -0.27604443 3.54099941 0.58715487
v -0.36136138 3.44946527 0.54740202
v -0.29170558 3.46427965 0.53822684
v -0.27921376 3.35545397 0.59164625
v -0.28703612 3.36699986 0.56034696
v -0.37192166 3.34670591 0.49459967
v -0.3127521 3.59783769 0.57007402
v -0.23351049 3.51926613 0.62956184
v -0.51330382 3.77903271 0.60170406
v -0.42081061 3.66867828 0.62991011
v -0.30944282 3.29484534 0.5870434
v -0.46199828 3.17367506 0.59574229
v -0.48957354 3.2903018 0.51841545
v -0.59775895 3.7135222 0.5846774
v -0.68606597 3.71191216 0.67919087
v -0.58077222 3.71177578 0.62601769
v -0.51470065 3.11586475 0.60139263
v -0.58175486 3.19085503 0.63536316
v -0.65377492 3.21729469 0.57668382
v -0.72222161 3.65527773 0.63544154
v -0.63552642 3.59607339 0.50823694
v -0.42405933 3.21751189 0.64677894
v -0.52580124 3.09522533 0.71173137
v -0.55482453 3.11347628 0.69130671
v -0.54325849 3.79611635 0.71371448
v -0.54564756 3.70320916 0.6524353
v -0.69948328 3.1888752 0.737293
v -0.6344009 3.72574925 0.73039579
v -0.48942634 3.69636703 0.74662983
v -0.57070351 3.61875892 0.50506121
v -0.29982364 3.62419415 0.69571757
v -0.45994619 3.75978327 0.68953735
v -0.71595609 3.68076015 0.75582445
v -0.59341007 3.70740724 0.82254636
v -0.49500507 3.20048809 0.74705428
v -0.60308945 3.19606638 0.84393346
v -0.52020788 3.13983488 1.0457741
v -0.4530853 3.67937016 0.87272704
v -0.30192661 3.59494352 0.76538384
v -0.35844648 3.23148847 0.71585476
v -0.30178434 3.28136659 0.6716007
v -0.52265346 3.75811243 1.0816685
v -0.30022413 3.29330397 0.75764656
v -0.43457013 3.22572494 0.85657167
v -0.49007976 3.38897634 0.88901782
v -0.52831483 3.2303257 1.04820383
v -0.60202599 3.35215616 0.87952065
v -0.6185233 3.65839887 0.8668586
v -0.52748781 3.48973155 0.89227176
v -0.29650721 3.49454355 0.77153516
v -0.36170089 3.45786548 0.85379004
v -0.26454845 3.37474442 0.77188206
v -0.37497884 3.25508404 0.03428441
v -0.43169904 3.26108885 -0.03150222
v -0.40639347 3.44808507 0.19455558
v -0.67506003 3.32189488 0.84952676
v -0.75977814 3.29077911 0.70543444
v -0.73976034 3.53966522 0.79458892
v -0.65261626 3.27925992 0.52540332
v -0.70061737 3.36612272 0.51594126
v -0.8435607 3.30777717 0.46397227
v -0.68024254 3.4821775 0.55274862
v -1.16529596 3.43995285 0.56983286
v -0.98836231 3.58485889 0.35396343
v -1.25866365 3.44623518 0.62469137
v -0.97322756 3.67423344 0.30317789
v -0.83014667 3.55352831 0.48335758
v -0.4537189 3.68964982 0.01194859
v -0.43393058 3.61985874 -0.03098062
v -0.5566082 3.55713749 0.18335065
v -0.98859787 3.32932234 0.41104913
v -0.5072304 3.21522021 0.25060016
v -0.38202739 3.56404543 0.45558769
v -0.39188945 3.69232798 0.0577026
v -0.43809223 3.59765792 0.51069272
v -0.36069387 3.55302 0.27923262
v -0.36530495 3.32548046 0.25450957
v -0.38771695 3.63905311 -0.00303575
v -0.41656363 3.19255733 0.05259767
v -0.53731972 3.69942594 0.15504125
v -0.9645611 3.22401404 0.32744932
v -0.34978455 3.53430271 0.73003018
v -0.54422414 3.21804953 0.14783418
v -0.25431356 3.47580671 0.66821504
v -0.54693907 3.37898922 0.20184004
v -0.35275096 3.36630011 0.72636855
v -0.34605268 3.30085683 0.72078943
v -0.33006644 3.39785695 0.65988982
v -0.49666777 3.4592247 0.21255112
v -0.25917438 3.41634703 0.66548252
v -0.73730469 3.23946786 0.1621922
v -0.95648217 3.20704126 -0.03275761
v -0.909114 3.39370489 0.21831307
v -0.99135303 3.62654209 0.00298923
v -0.94334388 3.50741816 0.22431991
v -0.62843454 3.22370577 0.18317455
v -0.61405206 3.67671251 0.18115303
v -0.98617935 3.3943789 0.28859711
v -0.77315855 3.67780805 0.14420205
v -0.95005715 3.69832063 -0.02230683
v -0.78919691 3.56278324 0.18766123
v -1.00139248 3.27182221 0.06043589
v -0.54307979 3.69989991 0.82121021
v -0.51850653 3.71241808 0.85121965
v -0.54302478 3.7462697 0.83930063
v -0.49229863 3.74555516 0.84059066
v -0.49235362 3.69918537 0.82250023
v -0.51687187 3.73303699 0.81058121
vn 0.83333 -0.51112 0.21053
vn 0.62807 0.57304 0.52644
vn 0.79681 0.46084 0.3908
vn 0.83844 0.08921 -0.53764
vn 0.89508 -0.24229 0.37433
vn 0.69502 -0.07153 -0.71542
vn 0.61766 -0.02701 -0.78598
vn 0.8115 0.22148 -0.54075
vn 0.91141 -0.03129 0.4103
vn 0.97855 -0.20433 0.02635
vn 0.81594 -0.22456 -0.53274
vn 0.92845 0.07496 -0.36381
vn 0.73983 -0.51207 -0.4364
vn 0.64732 0.62581 -0.43513
vn 0.95557 0.29422 0.01777
vn 0.0713 0.99673 -0.03809
vn 0.57293 0.81507 -0.08616
vn 0.66429 -0.62967 -0.4028
vn 0.48041 -0.87078 -0.10463
vn 0.18036 -0.87986 -0.43967
vn -0.28156 0.80479 -0.52254
vn -0.54223 0.82398 -0.16444
vn -0.08969 0.94466 0.31554
vn 0.18293 -0.98026 0.07497
vn 0.11047 -0.93735 -0.33042
vn -0.50375 -0.63939 -0.58087
vn -0.84666 0.38621 -0.36607
vn -0.51803 0.85347 -0.05687
vn 0.49793 -0.84166 -0.20899
vn 0.14277 -0.97456 0.17276
vn -0.18946 -0.82514 -0.53222
vn -0.01009 0.98888 0.14839
vn 0.09142 0.87376 -0.47769
vn -0.66 -0.72211 0.20729
vn -0.33595 0.85462 0.39594
vn 0.329 0.835 0.44106
vn -0.01676 0.30931 -0.95081
vn 0.92456 0.33552 0.18062
vn 0.4378 0.89394 -0.09592
vn -0.77312 0.55778 0.30194
vn -0.29008 0.94303 0.16293
vn 0.21566 -0.82779 0.51793
vn -0.52065 -0.80106 0.29535
vn 0.02836 -0.6744 0.73782
vn 0.78565 0.5004 0.3638
vn 0.96846 0.19611 0.15367
vn 0.58479 -0.79808 0.14525
vn 0.88447 -0.43794 0.16101
vn 0.04498 0.46728 0.88297
vn 0.95247 -0.28815 0.09884
vn 0.73752 -0.56057 0.3766
vn 0.2243 0.16137 0.96107
vn -0.05997 0.21357 0.97509
vn -0.48022 0.1573 0.86293
vn -0.75435 0.25967 0.60294
vn -0.02384 -0.0811 0.99642
vn 0.90556 0.32845 0.26846
vn 0.5205 0.01733 0.85369
vn 0.89943 -0.3501 0.26163
vn 0.9181 -0.10655 -0.38177
vn -0.04004 -0.00594 -0.99918
vn 0.67637 -0.03717 -0.73562
vn -0.60186 -0.16969 0.78036
vn -0.96755 -0.2526 -0.00647
vn -0.88127 0.10607 0.46055
vn -0.47803 -0.87204 -0.10506
vn -0.41503 -0.07608 0.90662
vn -0.22852 -0.47587 0.84931
vn -0.92209 0.09737 -0.37452
vn 0.26445 -0.39526 0.87968
vn -0.79428 0.57806 0.18699
vn -0.72672 -0.06664 0.68369
vn -0.59947 0.74626 0.28937
vn -0.16219 0.43824 0.88411
vn -0.35092 0.70278 -0.61884
vn -0.12285 -0.19177 -0.97372
vn -0.8927 -0.41545 -0.17463
vn -0.65684 -0.73556 0.16587
vn 0.23307 -0.95689 0.1733
vn 0.83238 0.53116 -0.15816
vn 0.63852 0.75827 -0.1316
vn 0.27147 0.919 -0.28591
vn 0.99364 0.10771 -0.03287
vn 0.9402 -0.34032 0.01418
vn 0.77119 0.08967 -0.63026
vn 0.26597 -0.92996 -0.25383
vn -0.36146 0.87002 -0.33527
vn -0.59348 -0.76446 0.25176
vn 0.91797 0.20224 -0.34121
vn -0.5507 -0.66649 -0.50251
vn 0.86021 0.22102 0.45956
vn -0.15926 0.25426 -0.95393
vn 0.85603 -0.37649 -0.35422
vn 0.8367 0.53266 -0.12727
vn 0.6424 -0.57207 0.50996
vn -0.23495 -0.21125 -0.94877
vn 0.86509 -0.36625 0.34276
vn 0.12458 -0.54245 -0.8308
vn -0.17109 -0.33461 -0.9267
vn -0.35266 0.36302 -0.86247
vn -0.60242 -0.3263 -0.72844
vn -0.62024 -0.3587 -0.69759
vn -0.21811 -0.09867 -0.97092
vn -0.19447 -0.0205 -0.98069
vn -0.89747 -0.05813 -0.43722
vn 0.29558 -0.73934 -0.60498
vn -0.10811 0.49828 -0.86025
vn 0.16088 -0.46683 -0.86959
vn -0.85383 0.26811 -0.4462
vn -0.71022 -0.64163 -0.28964
vn -0.03162 -0.39939 0.91624
vn -0.7076 0.66062 0.25078
vn 0.71022 0.64163 0.28964
vn 0.70759 -0.66062 -0.25078
vn 0.03162 0.39938 -0.91624
vt 0.35962 0.31949
vt 0.35139 0.29417
vt 0.38053 0.29551
vt 0.15823 0.8457
vt 0.15665 0.8101
vt 0.1759 0.82414
vt 0.75434 0.83305
vt 0.73033 0.83427
vt 0.74814 0.87454
vt 0.76209 0.80792
vt 0.53528 0.31799
vt 0.51849 0.28856
vt 0.53148 0.29703
vt 0.75611 0.79288
vt 0.82279 0.98512
vt 0.82843 0.98188
vt 0.82843 0.98798
vt 0.53437 0.26355
vt 0.15999 0.42333
vt 0.13245 0.49153
vt 0.12285 0.43596
vt 0.98244 0.68453
vt 0.96188 0.68504
vt 0.97268 0.65082
vt 0.09835 0.52991
vt 0.10353 0.55975
vt 0.5193 0.96039
vt 0.51397 0.95296
vt 0.5221 0.97684
vt 0.07732 0.53094
vt 0.06318 0.54203
vt 0.6456 0.09215
vt 0.6148 0.06873
vt 0.64859 0.01416
vt 0.36989 0.58497
vt 0.35131 0.64475
vt 0.42278 0.64351
vt 0.44692 0.59577
vt 0.64749 0.16856
vt 0.59895 0.21335
vt 0.62543 0.15853
vt 0.50284 0.64495
vt 0.50249 0.66488
vt 0.53496 0.63874
vt 0.63761 0.2356
vt 0.68669 0.21702
vt 0.20065 0.83057
vt 0.18183 0.82955
vt 0.18886 0.87217
vt 0.57392 0.1324
vt 0.60643 0.13348
vt 0.47047 0.71561
vt 0.55974 0.71027
vt 0.47951 0.70328
vt 0.88351 0.89752
vt 0.8926 0.95512
vt 0.86339 0.93153
vt 0.41131 0.67923
vt 0.68942 0.16937
vt 0.58026 0.02441
vt 0.59154 0.052
vt 0.82857 0.33905
vt 0.85343 0.36465
vt 0.82727 0.39933
vt 0.66506 0.61357
vt 0.74568 0.63221
vt 0.75923 0.56857
vt 0.19795 0.91533
vt 0.20229 0.88644
vt 0.75363 0.72361
vt 0.69013 0.41296
vt 0.75848 0.44954
vt 0.68658 0.44038
vt 0.46722 0.98985
vt 0.45713 0.98281
vt 0.46722 0.97877
vt 0.56562 0.2328
vt 0.56861 0.18609
vt 0.16473 0.94181
vt 0.13985 0.927
vt 0.16485 0.90338
vt 0.72782 0.92811
vt 0.75957 0.88641
vt 0.76498 0.89283
vt 0.75386 0.39063
vt 0.85566 0.54102
vt 0.59731 0.6382
vt 0.59575 0.66278
vt 0.65908 0.67445
vt 0.83354 0.24107
vt 0.84888 0.31444
vt 0.76412 0.30669
vt 0.10307 0.94769
vt 0.12114 0.94437
vt 0.11231 0.98037
vt 0.68712 0.91876
vt 0.663 0.9207
vt 0.67334 0.94875
vt 0.56203 0.81658
vt 0.49032 0.82495
vt 0.55112 0.84828
vt 0.84381 0.42153
vt 0.78833 0.88772
vt 0.78996 0.97373
vt 0.80788 0.94563
vt 0.48957 0.87281
vt 0.57023 0.9306
vt 0.56045 0.86149
vt 0.76759 0.2521
vt 0.48258 0.93281
vt 0.43396 0.1601
vt 0.40878 0.07108
vt 0.45699 0.09231
vt 0.01631 0.26814
vt 0.05278 0.28506
vt 0.071 0.25689
vt 0.93318 0.12363
vt 0.88032 0.1065
vt 0.93347 0.08378
vt 0.97455 0.29403
vt 0.97964 0.31522
vt 0.96904 0.32806
vt 0.91629 0.02793
vt 0.83321 0.85195
vt 0.80534 0.84649
vt 0.8102 0.74093
vt 0.38578 0.22942
vt 0.35993 0.05547
vt 0.28152 0.8659
vt 0.23407 0.85746
vt 0.24476 0.91267
vt 0.35418 0.16486
vt 0.25988 0.73308
vt 0.55957 0.61421
vt 0.56193 0.59377
vt 0.55357 0.57288
vt 0.68499 0.86044
vt 0.59101 0.85101
vt 0.71988 0.78872
vt 0.35516 0.22595
vt 0.52666 0.12871
vt 0.49713 0.02449
vt 0.97722 0.81796
vt 0.97473 0.75749
vt 0.96402 0.80755
vt 0.95802 0.18792
vt 0.97205 0.15835
vt 0.969 0.20183
vt 0.12368 0.17807
vt 0.04377 0.07078
vt 0.5767 0.7456
vt 0.34936 0.69493
vt 0.2294 0.68289
vt 0.2116 0.71069
vt 0.38103 0.00545
vt 0.22441 0.13778
vt 0.25222 0.24552
vt 0.2405 0.15319
vt 0.13656 0.25616
vt 0.24499 0.29944
vt 0.1925 0.22476
vt 0.69616 0.27084
vt 0.67988 0.25807
vt 0.69124 0.24392
vt 0.29891 0.77325
vt 0.33493 0.7687
vt 0.33257 0.73634
vt 0.39299 0.70344
vt 0.19468 0.07092
vt 0.15646 0.10483
vt 0.01408 0.21855
vt 0.58131 0.67868
vt 0.13485 0.06479
vt 0.09796 0.03843
vt 0.23495 0.06665
vt 0.5417 0.05307
vt 0.87713 0.19652
vt 0.91889 0.17435
vt 0.93805 0.62158
vt 0.90766 0.57996
vt 0.95503 0.54822
vt 0.76249 0.00952
vt 0.83565 0.01562
vt 0.76891 0.06048
vt 0.89861 0.73801
vt 0.89576 0.75899
vt 0.35853 0.01928
vt 0.25099 0.54217
vt 0.29572 0.63711
vt 0.16377 0.54103
vt 0.83041 0.56414
vt 0.81245 0.70047
vt 0.80492 0.59356
vt 0.24689 0.40545
vt 0.49048 0.21838
vt 0.10525 0.40145
vt 0.10354 0.4348
vt 0.07553 0.42414
vt 0.28219 0.33074
vt 0.31734 0.36663
vt 0.68927 0.05486
vt 0.84335 0.07721
vt 0.82828 0.20387
vt 0.92668 0.70121
vt 0.91837 0.62179
vt 0.54334 0.55619
vt 0.46984 0.26724
vt 0.50463 0.28181
vt 0.47661 0.29476
vt 0.1409 0.56388
vt 0.0513 0.38939
vt 0.01918 0.38637
vt 0.02936 0.36795
vt 0.67307 0.10681
vt 0.58245 0.43944
vt 0.66083 0.43414
vt 0.66441 0.40298
vt 0.01437 0.95832
vt 0.06165 0.94978
vt 0.02988 0.88281
vt 0.89455 0.63597
vt 0.98972 0.5504
vt 0.99685 0.56065
vt 0.99443 0.59557
vt 0.29751 0.87421
vt 0.33284 0.87423
vt 0.30497 0.84635
vt 0.32126 0.91426
vt 0.27589 0.93585
vt 0.27963 0.96843
vt 0.2657 0.96386
vt 0.70213 0.30442
vt 0.6797 0.28864
vt 0.92523 0.95574
vt 0.90746 0.9345
vt 0.92904 0.91411
vt 0.24951 0.02226
vt 0.99869 0.90721
vt 0.99869 0.89946
vt 0.99287 0.90317
vt 0.12809 0.72656
vt 0.19028 0.75995
vt 0.20562 0.72651
vt 0.18577 0.39192
vt 0.24442 0.33338
vt 0.73506 0.30105
vt 0.72522 0.31057
vt 0.70989 0.29992
vt 0.43905 0.44734
vt 0.52412 0.34378
vt 0.35956 0.35286
vt 0.41813 0.26483
vt 0.44661 0.27463
vt 0.39989 0.28628
vt 0.42024 0.77433
vt 0.40048 0.83106
vt 0.38467 0.77383
vt 0.42933 0.98566
vt 0.42294 0.97168
vt 0.41319 0.96603
vt 0.61332 0.29493
vt 0.59199 0.30372
vt 0.61064 0.24685
vt 0.88526 0.97133
vt 0.07769 0.88728
vt 0.35412 0.99006
vt 0.35879 0.98897
vt 0.35879 0.99446
vt 0.7596 0.91544
vt 0.75468 0.96601
vt 0.9917 0.78652
vt 0.98181 0.76764
vt 0.9917 0.76087
vt 0.96857 0.73111
vt 0.95676 0.73076
vt 0.96857 0.71739
vt 0.62812 0.34495
vt 0.50529 0.39825
vt 0.13373 0.82891
vt 0.13775 0.85313
vt 0.93775 0.2641
vt 0.89821 0.26092
vt 0.89349 0.3518
vt 0.33288 0.62306
vt 0.97872 0.97043
vt 0.97535 0.9449
vt 0.96015 0.97626
vt 0.43862 0.29968
vt 0.96238 0.43249
vt 0.96581 0.44698
vt 0.97902 0.44054
vt 0.42833 0.94023
vt 0.366 0.26457
vt 0.38612 0.26348
vt 0.65152 0.31002
vt 0.62832 0.28325
vt 0.66339 0.29844
vt 0.09815 0.98824
vt 0.08506 0.96319
vt 0.09621 0.95875
vt 0.97721 0.50773
vt 0.97779 0.47676
vt 0.96418 0.49795
vt 0.17802 0.88078
vt 0.15751 0.88162
vt 0.96547 0.4696
vt 0.04558 0.5678
vt 0.65979 0.25249
vt 0.1066 0.8488
vt 0.09461 0.83046
vt 0.98049 0.40446
vt 0.96504 0.41876
vt 0.25681 0.92547
vt 0.95589 0.94393
vt 0.31917 0.25198
vt 0.31503 0.21026
vt 0.01888 0.84081
vt 0.076 0.81993
vt 0.64931 0.46883
vt 0.299 0.12733
vt 0.4104 0.86818
vt 0.41784 0.91722
vt 0.36771 0.91919
vt 0.93743 0.45812
vt 0.9562 0.49247
vt 0.95784 0.4636
vt 0.90456 0.41946
vt 0.907 0.47458
vt 0.90511 0.51278
vt 0.87131 0.3754
vt 0.35295 0.49013
vt 0.39029 0.53195
vt 0.92541 0.53357
vt 0.34107 0.9163
vt 0.88435 0.29838
vt 0.33308 0.29484
vt 0.08139 0.85472
vt 0.86483 0.32858
vt 0.3239 0.01672
vt 0.3389 0.0752
vt 0.95913 0.34719
vt 0.42239 0.32404
vt 0.44322 0.32796
vt 0.44322 0.30456
vt 0.35202 0.43741
vt 0.99271 0.42191
vt 0.99271 0.40203
vt 0.98467 0.40371
vt 0 0
usemtl mat0
f 1/1/1 2/2/2 3/3/3
f 4/4/4 5/5/5 6/6/6
f 4/7/4 7/8/7 8/9/8
f 7/8/7 4/7/4 6/10/6
f 8/11/8 9/12/9 10/13/10
f 6/10/6 11/14/11 7/8/7
f 8/15/8 7/16/7 9/17/9
f 9/12/9 12/18/12 10/13/10
f 13/19/13 10/20/10 12/21/12
f 9/22/9 7/23/7 11/24/11
f 8/25/8 10/20/10 14/26/14
f 11/27/11 6/28/6 5/29/5
f 15/30/15 8/25/8 3/31/3
f 16/32/16 17/33/17 14/34/14
f 13/35/13 18/36/18 19/37/19
f 19/37/19 20/38/20 13/35/13
f 21/39/21 22/40/22 23/41/23
f 24/42/24 25/43/25 26/44/26
f 27/45/27 21/39/21 28/46/28
f 29/47/29 30/48/30 31/49/31
f 32/50/32 33/51/33 22/40/22
f 30/52/30 34/53/34 31/54/31
f 35/55/35 36/56/36 32/57/32
f 29/58/29 19/37/19 18/36/18
f 21/39/21 37/59/37 28/46/28
f 22/40/22 21/39/21 27/45/27
f 38/60/38 17/33/17 39/61/39
f 25/43/25 31/54/31 26/44/26
f 35/62/35 40/63/40 41/64/41
f 42/65/42 43/66/43 34/67/34
f 22/40/22 33/51/33 23/41/23
f 25/68/25 29/69/29 31/49/31
f 44/70/44 43/66/43 42/65/42
f 38/71/38 45/72/45 46/73/46
f 47/74/47 30/75/30 48/76/48
f 40/77/40 35/78/35 22/40/22
f 17/79/17 16/80/16 23/81/23
f 30/82/30 47/83/47 42/84/42
f 36/85/36 49/86/49 45/72/45
f 47/87/47 50/88/50 51/89/51
f 51/90/51 52/91/52 53/92/53
f 52/93/52 54/94/54 53/95/53
f 42/65/42 51/89/51 44/70/44
f 33/96/33 32/97/32 39/98/39
f 55/99/55 49/100/49 41/101/41
f 41/64/41 40/63/40 55/102/55
f 14/103/14 21/104/21 16/105/16
f 47/87/47 51/89/51 42/65/42
f 44/106/44 54/107/54 43/108/43
f 35/62/35 41/64/41 36/85/36
f 53/92/53 44/109/44 51/90/51
f 44/106/44 53/110/53 54/107/54
f 56/111/56 54/112/54 52/113/52
f 40/114/40 22/115/22 27/116/27
f 57/117/57 58/118/58 59/119/59
f 19/120/19 29/121/29 25/122/25
f 50/123/50 59/119/59 58/118/58
f 60/124/60 61/125/61 62/126/62
f 55/127/55 63/128/63 56/111/56
f 63/129/63 64/130/64 34/131/34
f 55/127/55 65/132/65 63/128/63
f 65/133/65 64/130/64 63/129/63
f 66/134/66 67/135/67 68/136/68
f 45/137/45 49/138/49 56/139/56
f 40/140/40 65/132/65 55/127/55
f 58/141/58 52/113/52 51/142/51
f 52/113/52 58/141/58 56/111/56
f 17/143/17 33/144/33 39/145/39
f 39/146/39 36/147/36 38/148/38
f 69/149/69 64/150/64 27/116/27
f 34/53/34 26/44/26 31/54/31
f 55/99/55 56/151/56 49/100/49
f 18/36/18 48/152/48 29/58/29
f 40/153/40 27/154/27 65/133/65
f 54/112/54 63/128/63 43/155/43
f 70/156/70 71/157/71 72/158/72
f 41/64/41 49/86/49 36/85/36
f 27/116/27 28/159/28 69/149/69
f 73/160/73 71/157/71 74/161/74
f 28/162/28 73/163/73 74/164/74
f 75/165/75 76/166/76 77/167/77
f 66/134/66 20/38/20 26/44/26
f 36/85/36 45/72/45 38/71/38
f 48/152/48 30/168/30 29/58/29
f 17/33/17 38/60/38 14/34/14
f 68/169/68 67/170/67 74/161/74
f 70/156/70 68/169/68 74/161/74
f 74/161/74 71/157/71 70/156/70
f 64/150/64 65/171/65 27/116/27
f 69/149/69 28/159/28 67/170/67
f 26/44/26 34/53/34 64/172/64
f 69/149/69 67/170/67 66/173/66
f 64/150/64 69/149/69 66/173/66
f 74/161/74 67/170/67 28/159/28
f 26/174/26 64/150/64 66/173/66
f 68/169/68 70/156/70 78/175/78
f 54/112/54 56/111/56 63/128/63
f 50/176/50 58/141/58 51/142/51
f 45/177/45 58/118/58 46/178/46
f 20/179/20 79/180/79 13/181/13
f 80/182/80 81/183/81 82/184/82
f 62/126/62 83/185/83 84/186/84
f 63/128/63 34/187/34 43/155/43
f 83/188/83 81/189/81 80/190/80
f 85/191/85 62/192/62 76/193/76
f 84/194/84 83/188/83 13/19/13
f 13/19/13 83/188/83 80/190/80
f 58/141/58 45/195/45 56/111/56
f 80/190/80 14/26/14 10/20/10
f 18/196/18 11/197/11 5/198/5
f 80/190/80 10/20/10 13/19/13
f 84/194/84 86/199/86 60/200/60
f 82/201/82 28/46/28 37/59/37
f 87/202/87 73/203/73 82/184/82
f 88/204/88 79/205/79 20/179/20
f 88/206/88 20/38/20 66/134/66
f 12/21/12 18/196/18 13/19/13
f 2/207/2 1/208/1 89/209/89
f 57/117/57 46/178/46 58/118/58
f 82/210/82 14/26/14 80/190/80
f 48/211/48 50/212/50 47/213/47
f 82/201/82 37/59/37 21/214/21
f 77/215/77 87/216/87 75/217/75
f 61/218/61 86/219/86 90/220/90
f 85/191/85 83/221/83 62/192/62
f 87/202/87 82/184/82 81/183/81
f 14/34/14 82/201/82 21/214/21
f 23/222/23 33/223/33 17/224/17
f 24/225/24 20/226/20 19/227/19
f 24/225/24 26/228/26 20/226/20
f 57/229/57 91/230/91 2/231/2
f 82/232/82 73/233/73 28/162/28
f 25/234/25 24/235/24 19/236/19
f 68/169/68 78/175/78 88/237/88
f 68/136/68 88/206/88 66/134/66
f 23/238/23 16/239/16 21/240/21
f 79/241/79 86/242/86 84/243/84
f 13/244/13 79/245/79 84/194/84
f 3/31/3 8/25/8 14/26/14
f 85/246/85 76/247/76 75/248/75
f 92/249/92 62/250/62 61/251/61
f 93/252/93 94/253/94 95/254/95
f 75/255/75 87/256/87 81/257/81
f 32/50/32 22/40/22 35/78/35
f 3/258/3 38/259/38 1/260/1
f 60/261/60 86/262/86 61/263/61
f 32/57/32 36/56/36 39/264/39
f 79/265/79 90/220/90 86/219/86
f 11/266/11 12/267/12 9/268/9
f 30/82/30 42/269/42 34/270/34
f 84/271/84 60/272/60 62/273/62
f 85/274/85 75/275/75 81/276/81
f 77/215/77 76/277/76 96/278/96
f 92/249/92 96/278/96 62/250/62
f 97/279/97 4/4/4 91/280/91
f 4/4/4 97/279/97 5/5/5
f 98/281/98 99/282/99 100/283/100
f 81/189/81 83/188/83 85/284/85
f 93/285/93 95/286/95 59/287/59
f 95/254/95 94/253/94 48/288/48
f 89/289/89 1/290/1 46/291/46
f 1/260/1 38/259/38 46/292/46
f 5/198/5 48/211/48 18/196/18
f 11/197/11 18/196/18 12/21/12
f 91/293/91 15/294/15 3/3/3
f 97/295/97 95/296/95 5/297/5
f 3/3/3 2/2/2 91/293/91
f 48/298/48 94/299/94 50/300/50
f 59/301/59 50/302/50 93/303/93
f 8/304/8 15/305/15 4/4/4
f 50/302/50 94/306/94 93/303/93
f 3/31/3 14/26/14 38/307/38
f 5/297/5 95/296/95 48/308/48
f 97/279/97 57/309/57 59/310/59
f 91/280/91 4/4/4 15/305/15
f 57/311/57 89/312/89 46/291/46
f 89/313/89 57/229/57 2/231/2
f 95/286/95 97/314/97 59/287/59
f 91/280/91 57/309/57 97/279/97
f 101/315/101 102/316/102 71/157/71
f 103/317/103 90/220/90 88/318/88
f 104/319/104 77/215/77 96/278/96
f 88/237/88 78/175/78 105/320/105
f 73/160/73 101/315/101 71/157/71
f 104/321/104 106/322/106 107/323/107
f 108/324/108 104/325/104 96/326/96
f 102/327/102 101/328/101 108/324/108
f 107/329/107 108/324/108 101/328/101
f 100/283/100 105/330/105 102/327/102
f 103/331/103 98/332/98 92/249/92
f 106/333/106 104/325/104 108/324/108
f 76/277/76 62/250/62 96/278/96
f 104/321/104 107/323/107 73/334/73
f 87/256/87 104/321/104 73/334/73
f 99/282/99 109/335/109 100/283/100
f 107/336/107 101/315/101 73/160/73
f 107/329/107 106/333/106 108/324/108
f 90/220/90 79/337/79 88/318/88
f 98/332/98 96/278/96 92/249/92
f 100/283/100 102/327/102 98/281/98
f 100/283/100 109/335/109 105/338/105
f 99/339/99 88/237/88 109/340/109
f 109/340/109 88/237/88 105/320/105
f 96/341/96 98/281/98 102/327/102
f 70/156/70 105/320/105 78/175/78
f 72/158/72 102/316/102 105/320/105
f 87/216/87 77/215/77 104/319/104
f 88/342/88 98/343/98 103/344/103
f 96/326/96 102/327/102 108/324/108
f 90/345/90 92/249/92 61/251/61
f 98/346/98 88/347/88 99/348/99
f 71/157/71 102/316/102 72/158/72
f 90/345/90 103/331/103 92/249/92
f 105/320/105 70/156/70 72/158/72
usemtl mat1
f 110/349/110 111/349/111 112/349/112
f 112/349/112 111/349/111 113/349/113
f 113/349/113 111/349/111 114/349/114
f 114/349/114 111/349/111 110/349/110
f 115/349/115 114/349/114 110/349/110
f 115/349/115 113/349/113 114/349/114
f 115/349/115 112/349/112 113/349/113
f 115/349/115 110/349/110 112/349/112
# Vertices: 115, normals: 115, texture coordinates: 349, faces: 222

