# Aspose.3D Wavefront OBJ Exporter
# Copyright 2004-2025 Aspose Pty Ltd.
# File created: 03/25/2025 22:03:40

mtllib material.lib
g dingus

#
# object dingus
#

v -1351.9127 184.65117 374.441
v -869.9948 -28.43836 399.98364
v -1011.5157 319.71606 642.10876
v -1173.2153 48.792526 431.97116
v -924.65344 45.005333 502.26797
v -1215.1986 1327.2043 331.60406
v -880.2265 1284.2471 483.52527
v -841.39264 1490.1602 210.55951
v -1051.3757 1312.743 439.04306
v -1078.8782 1467.4987 213.10709
v -1265.8948 183.01987 -523.94183
v -924.9749 201.7105 -712.02856
v -1146.1184 200.6113 -651.15015
v -1019.67737 96.076775 -569.6563
v -870.1506 79.589195 -628.46106
v -521.50995 1580.0256 -458.2482
v -752.04205 1551.5532 -551.7395
v 834.7907 283.24823 546.7235
v 424.71985 191.91734 589.78485
v 538.8241 -41.00546 499.17584
v 700.9126 265.7656 613.137
v 732.495 48.400238 601.84985
v 489.61172 -14.720725 588.85254
v 830.79626 28.88662 528.2235
v 180.22731 1461.8993 399.2768
v 298.19498 1139.7676 518.0197
v 375.96225 1346.897 526.86786
v 648.35693 186.4871 -581.9153
v 613.0227 -24.060766 -394.16455
v 904.7292 254.97165 -424.1234
v 837.03326 89.2087 -404.4553
v 605.601 17.001469 -540.30676
v 365.3355 1400.6619 -243.45683
v 775.1253 1641.4595 -125.256355
v 866.47205 1641.4812 -234.67458
v 635.986 1279.1329 -303.19125
v 393.22897 1310.156 -335.03073
v -460.67505 189.08295 -746.76276
v 98.54033 177.79582 -722.22186
v 83.74311 -37.469833 -544.9046
v -461.65857 41.14447 -700.93567
v -353.2714 222.67545 -751.90045
v 57.31091 22.015816 -696.13293
v 163.05968 1255.2518 -617.0778
v -522.8475 1439.82 -652.6377
v 172.21356 1372.2067 -501.16037
v -492.19614 1510.3304 -568.59906
v 124.03969 1430.5068 -395.63068
v 71.26579 168.55655 591.4426
v -499.9431 37.72811 544.8853
v 96.38359 -76.70453 409.32565
v -225.12064 23.48422 532.5684
v -201.22562 -52.224762 399.69067
v 99.371 -42.16388 543.39496
v 3.699504 1404.944 377.5264
v -357.08905 1367.5598 295.1015
v 3.9220524 1120.8 518.9437
v 20.606604 1288.6025 461.86444
v 220.39607 1360.9658 525.6109
v -358.94693 1264.2533 414.34695
v -1469.523 763.7371 387.89694
v -1241.46 248.74304 515.5552
v -1531.331 455.94775 -673.07135
v -1460.6812 886.7045 -688.55725
v -1014.2412 432.6053 -816.9364
v -1537.181 631.2032 -697.9572
v -1379.6116 647.1487 -813.2056
v -1253.2852 934.6477 -820.15356
v -1109.0518 593.1208 -870.29456
v 703.41095 454.19803 -586.5936
v 580.6594 857.25354 -513.92114
v 1004.6548 1080.9357 -372.51385
v 972.4699 494.3496 -468.25235
v 877.0483 973.25824 -486.47897
v 1080.4222 994.1264 -211.62927
v 1041.4714 808.48206 -234.31915
v 737.72375 733.0299 519.56146
v 367.41937 584.44336 627.33795
v 540.44 913.7579 491.2518
v 453.86 1070.2329 493.34326
v 307.54776 817.2175 635.8255
v 66.36652 489.03857 680.21747
v 150.09567 911.64905 650.808
v -460.0531 773.9644 765.23553
v -91.10193 619.42065 765.647
v -81.11572 715.40735 769.03705
v -104.34694 860.4577 725.8023
v 145.02675 470.95856 -668.9909
v -466.1869 475.70236 -760.2082
v -364.042 915.326 -790.62335
v 157.89243 866.1004 -672.74536
v 163.91463 689.9479 -632.04193
v 1021.8191 1688.0535 -278.10767
v 43.996998 1755.6914 438.0355
v 1022.9247 1240.9152 692.80066
v 960.76984 996.5922 634.08777
v -1021.02716 3.7948487 -74.22247
v -1451.9117 162.49077 -181.00748
v -679.5234 1637.2695 -270.1913
v -954.4321 1594.2903 -369.41507
v 934.22546 86.754715 -98.41012
v 915.035 88.8402 6.439754
v 137.98137 1437.5642 -190.47636
v -311.17853 1588.7242 -227.3939
v 132.70027 1468.5708 -0.7800678
v -47.053535 1518.5399 -238.49364
v -444.00052 -11.856527 -554.0448
v -602.8918 -30.557877 -38.713642
v -257.22815 -9.917827 -556.1283
v 853.3334 669.63055 188.32791
v 987.45935 750.40607 16.435629
v -1626.0834 370.12955 -435.4096
v -1679.8926 626.0742 -474.0208
v -1668.4639 375.1022 -253.35254
v -1676.845 848.46216 -225.37982
v 910.3697 1567.7115 -303.5857
v 1251.486 1324.8654 166.21234
v 1068.6676 931.6499 244.41957
v -1440.7153 182.00423 201.817
v -1492.7213 175.94289 -58.60316
v -1292.9169 25.482092 207.93436
v -1316.1362 46.078846 -22.263046
v -1226.5623 1483.5403 -214.32262
v -756.1674 1625.7789 -114.91237
v -997.3317 1595.1814 -193.65001
v 634.1573 -21.455818 -38.02727
v 892.9213 33.074913 350.91022
v 793.40643 15.149487 77.610016
v 120.18428 1498.6954 131.26852
v 145.17406 1490.0188 311.00314
v 534.0638 1639.98 101.66873
v -358.32437 1564.6895 -34.19376
v -359.09332 1458.4337 175.3212
v -8.586652 1436.6344 290.66772
v 1.2467872 1481.4257 -18.378511
v 68.293465 -41.58312 -69.47216
v -1003.31305 -33.6712 216.77838
v 831.6262 420.95056 419.8746
v 982.0784 872.0056 168.09259
v 717.06836 844.9577 462.00528
v -1661.3976 380.36288 -137.80855
v -1595.8696 466.66077 156.16841
v -1588.6692 805.563 187.94876
v -1728.4603 640.37946 -228.65514
v 630.2272 1731.6266 146.30443
v 1182.1702 1253.2717 559.04346
v 954.9791 933.33606 453.49783
v -1040.6287 1292.1729 -730.35834
v 495.47977 1022.8946 -483.37048
v 319.12732 1089.7864 573.9051
v 434.83096 1278.6305 693.4744
v -438.06552 923.73724 731.06396
v 154.0075 1072.7498 -692.7678
v -1431.6587 1244.4867 -439.85825
v -1502.2048 1236.817 -260.6602
v -1528.9911 1204.3192 -122.41898
v -856.66675 1114.2028 604.2189
v -1074.9902 1451.7428 -565.7353
v 696.30145 1215.1758 -373.04575
v 447.9464 1106.3821 -434.1349
v 381.91412 1255.1562 563.9418
v 209.49283 1087.9972 564.0642
v -241.29434 1268.0978 -708.0081
v 1023.26624 1617.1486 -90.09806
v 1121.3881 1603.2963 182.80774
v -1407.3643 1367.5602 -194.84807
v -1265.0868 1387.0228 133.38855
v -1131.2036 1177.74 497.21808
v -693.1176 1299.9866 -753.30756
v -415.19928 1058.7821 631.8288
v -1294.4681 1392.2964 -422.72815
v -1454.7831 450.1599 375.4782
v -1272.4219 594.6432 543.74835
v -949.27313 695.3277 691.9031
v -1379.076 482.19858 -784.6917
v 1041.1499 599.2359 -242.17735
v 978.28406 713.64844 -475.06683
v 765.2611 629.9128 -544.27576
v 489.27203 709.65094 603.2408
v -542.72675 467.17874 709.24005
v -103.05415 679.20123 -674.5066
v -513.8348 655.2542 -786.5943
v -1678.8499 487.2965 -472.76978
v -1729.8258 502.25812 -238.7306
v 377.18835 1630.4851 547.997
v -1227.3989 918.9975 567.4821
v -1403.6241 987.5854 386.3664
v -994.0828 901.3708 -880.31775
v 959.0698 1178.2983 -384.3481
v 1232.5942 1418.6337 163.63164
v -1597.449 878.2408 -479.66696
v -858.9656 965.27704 661.5804
v -1270.5326 1267.5609 -632.9263
v 802.7421 1094.4508 -469.4704
v 538.3216 945.05225 -493.25082
v 426.17258 1127.9917 490.71704
v 423.20746 1195.8656 671.2862
v 43.152817 1034.087 577.395
v -401.01462 1127.6633 -780.66016
v 730.04675 1306.0214 727.9269
v 1101.9796 1372.7446 433.71503
v -1493.2715 1079.7869 188.90157
v 900.8231 1704.3304 -305.4848
v 505.47424 1682.4471 295.32715
v 296.45828 1403.8004 469.68347
v 1004.58344 1844.7091 -459.56027
v 175.46252 1720.6952 325.1969
v 1106.6423 1263.2712 -124.77376
v 614.0997 1177.1268 746.0626
v 673.59656 1049.1941 675.85803
v 819.9299 970.1504 563.5793
v 783.61945 1204.653 732.53253
v 794.18744 1767.3815 163.08206
v 963.9837 1528.1276 -290.6422
v 1239.1307 1161.0361 114.160095
v 1252.0514 1278.2522 322.66983
v 454.68732 1118.8378 635.40857
v 127.84935 1639.8342 343.0768
v 1086.4862 937.48834 -3.24137
v 934.609 1637.1807 -350.34317
v 1207.8163 1162.3363 40.185406
v 1118.7153 1109.031 -74.80888
v 1121.1359 1011.21344 80.1044
v 896.1455 1732.7294 -73.12016
v 1084.8547 1604.051 329.95364
v 854.4429 1672.8159 433.21164
v 1077.3457 1026.3616 587.82007
v 1164.7817 1061.626 506.10815
v 1054.7153 918.19904 358.55734
v 938.75275 1669.6202 351.6802
v 314.68347 1600.9347 195.42957
v 1215.657 1119.7595 317.84494
v 1113.0626 1503.4249 -8.646264
v 692.83704 1387.1837 661.83594
v 945.3144 1367.218 590.55884
v 1052.807 1460.0619 572.03827
v 1041.0928 1542.9231 457.60526
v 973.5318 1613.351 515.1773
v 822.1853 1531.8927 601.5469
v 899.10297 1383.9048 -321.8689
v 706.75476 1609.7864 574.3118
v 167.74127 1680.9132 453.84085
v 427.2846 1407.2953 598.0102
v 556.54144 1601.3196 595.881
v 711.59656 1510.7744 616.42816
v 576.49023 1495.1888 589.34753
v 1234.6808 1345.8278 263.57642
v 466.46033 1173.0934 701.81494
v 1022.8482 1257.7048 -278.3708
v 582.5684 1253.6486 750.4915
v 1095.8351 1348.0125 -138.85449
v 393.99496 1170.5276 554.58936
v 740.711 954.73944 492.50177
v 622.9457 1702.529 348.9386
v 1129.6759 1280.7551 668.8546
v 1076.5602 1395.9675 494.89398
v 198.97295 1533.8251 307.99564
v 249.02475 1522.793 466.8064
v 966.99695 1762.0125 -56.91595
v 1016.42017 1702.7374 48.352306
v 908.0694 1769.4224 80.88868
v 796.5935 1765.9661 97.17821
v 737.0796 1745.267 66.907135
v 748.4548 1548.6794 -234.67046
v 906.11096 1745.8168 -246.98296
v 372.40433 1461.7651 545.12646
v 472.95694 1493.1552 578.85315
v 309.98898 1690.0889 276.28876
v 317.89035 1590.7263 552.19794
v 983.4625 1633.8867 -307.8011
v 1192.4248 1470.5189 231.92368
v 1013.94464 1381.2673 -259.28857
v 459.52243 1322.6576 697.8674
v 1020.1872 1391.4263 599.5836
v 1069.6643 1494.3953 -112.01966
v 1202.9878 1506.3123 182.37222
v 539.8388 1681.2357 158.15268
v 1220.0962 1255.1337 57.772163
v 1091.0924 1151.4829 -156.02744
v 568.8999 1057.764 627.9525
v 967.64453 982.3805 559.2623
v 876.0683 1279.4629 681.0809
v 907.74316 1716.8148 193.08849
v 803.49066 1064.3016 705.928
v 818.45276 1484.596 -280.09406
v 1048.1768 1654.6821 120.2788
v 986.8849 259.76718 -252.62956
v 982.65875 432.4609 -48.251568
v 988.5025 565.04956 52.363895
v 860.63165 438.90765 183.03526
v 941.736 300.32227 144.13712
v 893.7022 394.53134 65.99032
v 853.3389 262.68484 186.4755
v 838.06573 288.91748 160.97285
v 892.2122 67.22412 -275.122
v 845.8359 128.80113 143.36226
v 911.97003 261.57526 178.74208
v 992.5347 319.5747 12.511921
v 884.3276 1268.8142 688.33514
v 567.59894 673.61053 938.4629
v 1000.7123 1064.1392 632.1182
v 285.53152 1111.8752 863.10376
v 969.7526 1193.8662 700.2589
v 543.0868 913.5019 994.2053
v 574.7489 1211.6505 786.16187
v 784.5055 813.1734 762.36816
v 760.78204 1083.3202 897.90643
v 1139.0258 1278.707 516.3051
v 1515.1823 811.2979 130.30728
v 1108.0503 1032.0255 488.71573
v 1483.2588 1154.776 -49.37475
v 1152.1743 1157.943 569.29254
v 1593.3142 971.6188 73.18843
v 1286.7119 1227.2333 261.1948
v 1273.153 927.0229 372.5865
v 1328.8756 1138.9902 401.976
# 316 vertices

vn -0.050080135 -0.24977043 0.9670092
vn -0.24340001 -0.27266666 0.9308111
vn -0.02573444 -0.65280026 0.7570929
vn -0.2631006 0.93292326 -0.24583004
vn -0.35607255 0.7593002 -0.54467934
vn -0.56480974 0.7542694 -0.33476496
vn -0.26284388 -0.86948764 -0.41821578
vn -0.06596351 -0.98156303 -0.17939529
vn -0.13912193 -0.981307 -0.13297175
vn 0.9187976 0.2076247 0.33571276
vn 0.9735809 0.11325007 0.19827941
vn 0.87802166 0.39665392 0.26784998
vn 0.10221691 0.6308216 -0.7691658
vn 0.17723313 0.4376045 -0.8815275
vn 0.0028831067 0.44871375 -0.8936708
vn -0.38242537 -0.74299836 0.5492761
vn -0.50157297 -0.31488788 0.8057731
vn -0.7033477 -0.46852902 0.5345864
vn -0.5386131 0.64111954 0.5466823
vn -0.2165861 0.67757374 0.7028402
vn -0.28197432 0.87194586 0.4002511
vn -0.30445644 -0.6736548 -0.67342085
vn -0.26284388 -0.86948764 -0.41821578
vn -0.42688766 -0.8009041 -0.41990432
vn 0.10221691 0.6308216 -0.7691658
vn -0.065549456 0.8276019 -0.5574749
vn 0.1722362 0.7933701 -0.58386517
vn -0.8756849 0.4453466 -0.18666102
vn -0.44954258 0.85696125 0.25204933
vn -0.50454164 0.6421077 0.57717884
vn -0.052542415 0.32562086 0.94403934
vn -0.7278937 0.07965276 0.6810477
vn -0.40146708 0.11318436 0.9088529
vn 0.9957754 -0.076288916 -0.05110196
vn 0.887477 -0.10090423 0.44966972
vn 0.9458627 -0.29997587 -0.123928115
vn -0.23823875 0.54658043 -0.8028027
vn -0.751083 0.4567454 -0.47671565
vn -0.23668674 0.2838313 -0.9292035
vn 0.33217418 0.51804817 -0.78821725
vn 0.28930393 0.6300883 -0.7206192
vn -0.05380085 0.4239777 -0.9040732
vn 0.15093888 -0.06205712 -0.9865933
vn 0.082367554 -0.64842176 -0.7568123
vn 0.049687564 -0.09986285 -0.9937599
vn -0.028687045 -0.98401093 -0.17578211
vn 0.082367554 -0.64842176 -0.7568123
vn 0.0047094366 -0.9821206 -0.18819398
vn 0.10221691 0.6308216 -0.7691658
vn 0.1722362 0.7933701 -0.58386517
vn 0.40846878 0.51040345 -0.75673085
vn 0.3088805 0.90599364 -0.28942737
vn 0.1722362 0.7933701 -0.58386517
vn 0.13484128 0.9264283 -0.3514945
vn 0.0212409 -0.22659555 0.9737573
vn -0.037572682 -0.65844834 0.7516875
vn -0.06746735 -0.68115866 0.72902066
vn -0.12699708 0.4217509 0.8977739
vn 0.016423529 0.6945033 0.71930194
vn 0.008272875 0.5553856 0.8315517
vn -0.26504812 0.75083023 0.60498226
vn -0.26506817 0.42325568 0.86636794
vn 0.0068695233 0.42317352 0.90602267
vn -0.7584067 0.07811916 0.6470833
vn -0.5338452 -0.051152166 0.8440336
vn -0.48008928 0.22028325 0.849111
vn -0.7627772 -0.17624699 0.6221799
vn -0.5338452 -0.051152166 0.8440336
vn -0.7584067 0.07811916 0.6470833
vn 0.9957754 -0.076288916 -0.05110196
vn 0.6929847 0.04054609 -0.7198112
vn 0.9863571 -0.15183108 -0.06361575
vn 0.12355637 0.42054644 0.8988184
vn 0.13168553 0.11511687 0.98458475
vn 0.14503263 0.36887833 0.9180928
vn -0.07332541 0.05444748 0.9958207
vn 0.13168553 0.11511687 0.98458475
vn 0.12355637 0.42054644 0.8988184
vn 0.20100665 0.04743459 0.9784407
vn 0.10320983 -0.50282025 0.85820717
vn 0.23379794 -0.73296076 0.6388325
vn -0.28197432 0.87194586 0.4002511
vn -0.59551674 0.7503506 0.2869387
vn -0.5386131 0.64111954 0.5466823
vn 0.03742809 0.89308465 0.44832915
vn -0.014002337 0.8746747 0.4845081
vn -0.03793509 0.7823395 0.62169594
vn 0.1336683 -0.9748432 0.17836362
vn -0.022340916 -0.9930104 0.115893245
vn -0.0038779639 -0.9994326 -0.03345937
vn -0.022340916 -0.9930104 0.115893245
vn -0.068622775 -0.9789301 0.19231904
vn -0.0038779639 -0.9994326 -0.03345937
vn -0.06596351 -0.98156303 -0.17939529
vn -0.028687045 -0.98401093 -0.17578211
vn -0.0346148 -0.99794376 -0.05394606
vn 0.020469336 0.9970887 -0.0734513
vn -0.031683367 0.9746513 0.22147465
vn 0.121460415 0.9569639 0.26356676
vn 0.20199634 0.9787135 -0.03629683
vn -0.2165861 0.67757374 0.7028402
vn -0.5386131 0.64111954 0.5466823
vn -0.39086396 0.4551178 0.80005825
vn 0.6479578 0.22729562 0.72697145
vn 0.74907184 -0.6219187 0.22827305
vn 0.788278 -0.6150233 -0.01907814
vn -0.022713583 0.6909839 0.72251314
vn 0.008272875 0.5553856 0.8315517
vn 0.016423529 0.6945033 0.71930194
vn -0.15441154 -0.67161167 0.7246343
vn -0.02573444 -0.65280026 0.7570929
vn -0.24340001 -0.27266666 0.9308111
vn -0.01932538 0.9713784 -0.23675004
vn 0.14337517 0.9860582 0.08445549
vn -0.30830473 0.9504114 -0.040821254
vn 0.15093888 -0.06205712 -0.9865933
vn 0.049687564 -0.09986285 -0.9937599
vn 0.14690298 0.123775125 -0.9813762
vn 0.15734889 0.32167912 0.933683
vn -0.1667431 -0.2828654 0.94455487
vn -0.14607088 -0.47739962 0.86645985
vn -0.5968633 -0.31836107 0.7364783
vn -0.6441872 -0.6155541 0.45400003
vn -0.8138162 -0.25755608 0.5209299
vn 0.12355637 0.42054644 0.8988184
vn 0.14503263 0.36887833 0.9180928
vn 0.008272875 0.5553856 0.8315517
vn 0.1839586 -0.04906276 -0.98170877
vn 0.13267049 0.21030821 -0.9685913
vn 0.35559887 0.20483586 -0.91191655
vn 0.14503263 0.36887833 0.9180928
vn 0.30680054 0.1918803 0.9322313
vn 0.15734889 0.32167912 0.933683
vn -0.8944841 -0.24243903 -0.37566143
vn -0.6472923 -0.43486 -0.62602675
vn -0.7051669 -0.63658243 -0.31225413
vn 0.20100665 0.04743459 0.9784407
vn 0.16246878 0.12779936 0.9784024
vn 0.20543373 0.5001066 0.8412434
vn 0.9804388 0.11655909 0.15859905
vn 0.6721098 0.30589285 0.67431283
vn 0.7828607 0.091405645 0.6154463
vn -0.43953007 0.8714762 -0.21758343
vn -0.33041072 0.85820806 -0.39282012
vn 0.2314287 0.96685886 0.107818075
vn 0.894177 0.096280664 -0.43723857
vn 0.9302678 -0.31583893 -0.18667498
vn 0.8615039 -0.2705798 -0.42964825
vn 0.121460415 0.9569639 0.26356676
vn 0.14337517 0.9860582 0.08445549
vn 0.20199634 0.9787135 -0.03629683
vn -0.55782366 -0.80498797 -0.2020573
vn -0.8126595 -0.5769879 -0.08166675
vn -0.7051669 -0.63658243 -0.31225413
vn 0.8645977 -0.07522478 0.49680182
vn 0.9402379 -0.13955367 0.3106082
vn 0.887477 -0.10090423 0.44966972
vn -0.0346148 -0.99794376 -0.05394606
vn -0.13912193 -0.981307 -0.13297175
vn -0.06596351 -0.98156303 -0.17939529
vn -0.30830473 0.9504114 -0.040821254
vn -0.36466697 0.82194686 -0.43751732
vn -0.01932538 0.9713784 -0.23675004
vn 0.9804388 0.11655909 0.15859905
vn 0.9402379 -0.13955367 0.3106082
vn 0.8645977 -0.07522478 0.49680182
vn -0.19627585 0.91887957 0.34225145
vn -0.30830473 0.9504114 -0.040821254
vn 0.14337517 0.9860582 0.08445549
vn -0.068622775 -0.9789301 0.19231904
vn -0.0346148 -0.99794376 -0.05394606
vn -0.028687045 -0.98401093 -0.17578211
vn 0.9804388 0.11655909 0.15859905
vn 0.8645977 -0.07522478 0.49680182
vn 0.6721098 0.30589285 0.67431283
vn -0.9042006 0.15460898 0.3981423
vn -0.9494506 0.31332836 -0.019200873
vn -0.9925262 0.11532188 0.039908677
vn -0.15085563 0.9492631 0.27593866
vn 0.012699448 0.9865332 0.16306658
vn -0.36454868 0.91053754 -0.1950017
vn 0.11476255 -0.9602306 0.25453243
vn 0.44039562 -0.87333864 0.20816167
vn 0.7898502 -0.5124306 0.33697417
vn -0.44954258 0.85696125 0.25204933
vn -0.30830473 0.9504114 -0.040821254
vn -0.19627585 0.91887957 0.34225145
vn -0.0038779639 -0.9994326 -0.03345937
vn 0.17918643 -0.9835396 -0.023284046
vn 0.1336683 -0.9748432 0.17836362
vn -0.5386131 0.64111954 0.5466823
vn -0.8152322 0.43027142 0.38763765
vn -0.7037722 0.33675328 0.62554127
vn 0.40846878 0.51040345 -0.75673085
vn 0.35559887 0.20483586 -0.91191655
vn 0.17723313 0.4376045 -0.8815275
vn 0.15401785 0.28698638 -0.945472
vn 0.10544467 0.3462853 -0.9321844
vn -0.1520893 0.535501 -0.8307271
vn -0.17870738 0.31646794 0.93161774
vn -0.39086396 0.4551178 0.80005825
vn -0.48008928 0.22028325 0.849111
vn 0.17215024 0.3617144 0.916257
vn 0.026785351 0.30761456 0.95113397
vn -0.06884238 0.35377935 0.932792
vn 0.0028831067 0.44871375 -0.8936708
vn 0.13267049 0.21030821 -0.9685913
vn -0.023288181 0.12527397 -0.9918488
vn 0.35559887 0.20483586 -0.91191655
vn 0.28418204 0.40922874 -0.8670481
vn 0.2300811 0.1657614 -0.9589504
vn -0.7439925 0.5353079 -0.39990065
vn -0.54419994 0.54552394 -0.6373775
vn -0.8545526 0.3419786 -0.3908843
vn -0.21843627 0.51712245 -0.8275686
vn -0.35607255 0.7593002 -0.54467934
vn -0.065549456 0.8276019 -0.5574749
vn -0.1520893 0.535501 -0.8307271
vn 0.33217418 0.51804817 -0.78821725
vn -0.05380085 0.4239777 -0.9040732
vn 0.17723313 0.4376045 -0.8815275
vn 0.10221691 0.6308216 -0.7691658
vn 0.40846878 0.51040345 -0.75673085
vn 0.67899615 0.66483724 0.3113769
vn 0.68747926 0.7244767 -0.05005749
vn 0.6842823 0.7290852 -0.0138757
vn 0.43542936 0.70573384 0.55887485
vn 0.3554082 0.90719247 0.2251374
vn 0.13415605 0.9235812 0.35916558
vn -0.100185946 0.5111391 0.853639
vn -0.39086396 0.4551178 0.80005825
vn -0.17870738 0.31646794 0.93161774
vn 0.15734889 0.32167912 0.933683
vn -0.044578902 0.421247 0.9058497
vn 0.008272875 0.5553856 0.8315517
vn 0.6721098 0.30589285 0.67431283
vn 0.8645977 -0.07522478 0.49680182
vn 0.63404375 -0.03517986 0.7724966
vn 0.2371348 0.08996406 -0.9673022
vn 0.18313313 -0.07115553 -0.9805096
vn 0.18569699 0.008370902 -0.98257136
vn -0.25384396 0.018754663 0.96706337
vn -0.050080135 -0.24977043 0.9670092
vn -0.07332541 0.05444748 0.9958207
vn -0.3892808 -0.39157203 -0.8337458
vn -0.06575873 -0.15238814 -0.9861306
vn -0.0273661 -0.32640496 -0.9448338
vn -0.9811388 -0.1903974 0.0333964
vn -0.8126595 -0.5769879 -0.08166675
vn -0.8613224 -0.485051 0.15115969
vn -0.76685226 0.50887346 0.3911336
vn -0.84829307 -0.31741822 -0.42384472
vn -0.3956053 0.4086316 0.8225064
vn -0.42120445 0.7982354 -0.43058914
vn -0.44954258 0.85696125 0.25204933
vn -0.8756849 0.4453466 -0.18666102
vn -0.01831496 0.5171329 0.85570914
vn -0.071370944 0.7616569 0.644038
vn -0.4164829 0.0735499 0.9061636
vn 0.15734889 0.32167912 0.933683
vn 0.008272875 0.5553856 0.8315517
vn 0.14503263 0.36887833 0.9180928
vn -0.48008928 0.22028325 0.849111
vn -0.7037722 0.33675328 0.62554127
vn -0.7584067 0.07811916 0.6470833
vn -0.9494506 0.31332836 -0.019200873
vn -0.8553055 0.4984921 0.14127317
vn -0.83259875 0.52581495 -0.17406315
vn 0.10544467 0.3462853 -0.9321844
vn 0.2300811 0.1657614 -0.9589504
vn 0.28418204 0.40922874 -0.8670481
vn -0.3611043 0.2644022 -0.8942568
vn -0.54419994 0.54552394 -0.6373775
vn -0.21843627 0.51712245 -0.8275686
vn -0.7042375 0.08594918 0.7047427
vn -0.8138162 -0.25755608 0.5209299
vn -0.45985758 -0.3899945 0.79776895
vn -0.50454164 0.6421077 0.57717884
vn -0.71887785 -0.21824653 0.6599873
vn -0.8756849 0.4453466 -0.18666102
vn 0.98461956 -0.1196414 -0.12731951
vn 0.7800194 0.62144244 0.07334232
vn 0.97052115 0.16882098 -0.17201263
vn 0.79708874 -0.37212235 -0.47557807
vn -0.24468076 -0.35106534 -0.9038166
vn 0.20235755 0.59474224 -0.77803165
vn 0.65220606 -0.025822587 -0.7576017
vn -0.41689396 -0.049530428 -0.9076046
vn -0.24468076 -0.35106534 -0.9038166
vn -0.44954258 0.85696125 0.25204933
vn -0.42120445 0.7982354 -0.43058914
vn -0.30830473 0.9504114 -0.040821254
vn -0.54157096 -0.09949699 0.83474624
vn -0.19233866 0.108471364 0.9753152
vn -0.4164829 0.0735499 0.9061636
vn -0.19233866 0.108471364 0.9753152
vn -0.01831496 0.5171329 0.85570914
vn -0.4164829 0.0735499 0.9061636
vn -0.19319181 0.9800931 0.0457634
vn -0.071370944 0.7616569 0.644038
vn -0.01831496 0.5171329 0.85570914
vn -0.19319181 0.9800931 0.0457634
vn -0.14836322 0.8774313 -0.45618272
vn -0.071370944 0.7616569 0.644038
vn -0.19233866 0.108471364 0.9753152
vn -0.1596086 0.33174193 0.9297702
vn -0.01831496 0.5171329 0.85570914
vn -0.40146708 0.11318436 0.9088529
vn -0.71887785 -0.21824653 0.6599873
vn -0.50454164 0.6421077 0.57717884
vn -0.43953007 0.8714762 -0.21758343
vn -0.8395494 0.5431486 -0.012100525
vn -0.91662127 0.17489462 -0.3594682
vn -0.751083 0.4567454 -0.47671565
vn -0.43953007 0.8714762 -0.21758343
vn -0.91662127 0.17489462 -0.3594682
vn 0.79708874 -0.37212235 -0.47557807
vn 0.65220606 -0.025822587 -0.7576017
vn -0.24468076 -0.35106534 -0.9038166
vn 0.98461956 -0.1196414 -0.12731951
vn 0.79708874 -0.37212235 -0.47557807
vn 0.20235755 0.59474224 -0.77803165
vn 0.97052115 0.16882098 -0.17201263
vn 0.65220606 -0.025822587 -0.7576017
vn 0.79708874 -0.37212235 -0.47557807
vn -0.41689396 -0.049530428 -0.9076046
vn -0.91662127 0.17489462 -0.3594682
vn -0.24468076 -0.35106534 -0.9038166
vn -0.41689396 -0.049530428 -0.9076046
vn 0.65220606 -0.025822587 -0.7576017
vn 0.15401785 0.28698638 -0.945472
vn -0.23668674 0.2838313 -0.9292035
vn -0.41689396 -0.049530428 -0.9076046
vn 0.15401785 0.28698638 -0.945472
vn -0.43953007 0.8714762 -0.21758343
vn 0.2314287 0.96685886 0.107818075
vn 0.29712126 0.9547635 0.012072379
vn 0.29712126 0.9547635 0.012072379
vn 0.2314287 0.96685886 0.107818075
vn 0.7800194 0.62144244 0.07334232
vn 0.7800194 0.62144244 0.07334232
vn 0.98461956 -0.1196414 -0.12731951
vn 0.29712126 0.9547635 0.012072379
vn -0.42120445 0.7982354 -0.43058914
vn -0.8756849 0.4453466 -0.18666102
vn -0.14836322 0.8774313 -0.45618272
vn -0.71887785 -0.21824653 0.6599873
vn -0.84829307 -0.31741822 -0.42384472
vn -0.8756849 0.4453466 -0.18666102
vn 0.8728091 0.142603 -0.46676397
vn 0.7317265 0.20201208 -0.6509743
vn 0.8611784 0.3149547 -0.39896762
vn 0.89499235 0.42380357 0.13920943
vn 0.7830703 0.51139176 0.35394806
vn 0.8469591 0.3763251 0.3755524
vn 0.6688354 0.44867566 0.5927473
vn 0.89499235 0.42380357 0.13920943
vn 0.8469591 0.3763251 0.3755524
vn -0.06884238 0.35377935 0.932792
vn 0.16246878 0.12779936 0.9784024
vn 0.60791534 0.24250212 0.75606334
vn 0.94770753 0.29449016 -0.12298815
vn 0.9846156 0.11628589 -0.13042122
vn 0.894177 0.096280664 -0.43723857
vn 0.7632068 0.21485229 -0.60938823
vn 0.88144594 0.054692015 -0.4691074
vn 0.7373891 0.17067684 -0.6535492
vn 0.17215024 0.3617144 0.916257
vn 0.01715934 0.6831093 0.7301146
vn -0.05530564 0.41162708 0.90967274
vn -0.3956053 0.4086316 0.8225064
vn -0.4164829 0.0735499 0.9061636
vn -0.071370944 0.7616569 0.644038
vn -0.3956053 0.4086316 0.8225064
vn -0.71887785 -0.21824653 0.6599873
vn -0.4164829 0.0735499 0.9061636
vn -0.3956053 0.4086316 0.8225064
vn -0.84829307 -0.31741822 -0.42384472
vn -0.71887785 -0.21824653 0.6599873
vn 0.7982482 0.45481727 -0.39489365
vn 0.6842823 0.7290852 -0.0138757
vn 0.887617 0.46053082 0.006884881
vn 0.43542936 0.70573384 0.55887485
vn 0.17215024 0.3617144 0.916257
vn 0.6688354 0.44867566 0.5927473
vn 0.67899615 0.66483724 0.3113769
vn 0.6842823 0.7290852 -0.0138757
vn 0.41606688 0.87127084 0.2603374
vn 0.7800194 0.62144244 0.07334232
vn 0.8611784 0.3149547 -0.39896762
vn 0.97052115 0.16882098 -0.17201263
vn 0.7800194 0.62144244 0.07334232
vn 0.6842823 0.7290852 -0.0138757
vn 0.8611784 0.3149547 -0.39896762
vn 0.8469591 0.3763251 0.3755524
vn 0.67899615 0.66483724 0.3113769
vn 0.43542936 0.70573384 0.55887485
vn 0.01715934 0.6831093 0.7301146
vn -0.01831496 0.5171329 0.85570914
vn -0.1596086 0.33174193 0.9297702
vn 0.887617 0.46053082 0.006884881
vn 0.68747926 0.7244767 -0.05005749
vn 0.67899615 0.66483724 0.3113769
vn 0.6688354 0.44867566 0.5927473
vn 0.60791534 0.24250212 0.75606334
vn 0.89499235 0.42380357 0.13920943
vn 0.7898502 -0.5124306 0.33697417
vn 0.9187976 0.2076247 0.33571276
vn 0.60791534 0.24250212 0.75606334
vn -0.15085563 0.9492631 0.27593866
vn -0.36454868 0.91053754 -0.1950017
vn -0.19319181 0.9800931 0.0457634
vn 0.87802166 0.39665392 0.26784998
vn 0.9846156 0.11628589 -0.13042122
vn 0.94770753 0.29449016 -0.12298815
vn -0.12039656 0.9703765 -0.20946136
vn -0.33041072 0.85820806 -0.39282012
vn -0.36454868 0.91053754 -0.1950017
vn -0.41084135 0.8600547 -0.30251518
vn -0.33041072 0.85820806 -0.39282012
vn -0.36466697 0.82194686 -0.43751732
vn 0.2314287 0.96685886 0.107818075
vn 0.6842823 0.7290852 -0.0138757
vn 0.7800194 0.62144244 0.07334232
vn 0.2314287 0.96685886 0.107818075
vn -0.33041072 0.85820806 -0.39282012
vn -0.12039656 0.9703765 -0.20946136
vn 0.9566064 -0.092610806 -0.27627447
vn 0.91884285 -0.015106907 -0.39433426
vn 0.90199924 -0.2878441 -0.3217813
vn -0.43953007 0.8714762 -0.21758343
vn 0.29712126 0.9547635 0.012072379
vn -0.8395494 0.5431486 -0.012100525
vn 0.20235755 0.59474224 -0.77803165
vn -0.91662127 0.17489462 -0.3594682
vn -0.8395494 0.5431486 -0.012100525
vn -0.11573226 0.80848545 -0.57702446
vn -0.84829307 -0.31741822 -0.42384472
vn -0.76685226 0.50887346 0.3911336
vn -0.11573226 0.80848545 -0.57702446
vn -0.14836322 0.8774313 -0.45618272
vn -0.84829307 -0.31741822 -0.42384472
vn -0.14836322 0.8774313 -0.45618272
vn -0.8756849 0.4453466 -0.18666102
vn -0.84829307 -0.31741822 -0.42384472
vn 0.23379794 -0.73296076 0.6388325
vn 0.24664198 -0.93304384 0.26191008
vn 0.5187756 -0.6564262 0.5477012
vn -0.45985758 -0.3899945 0.79776895
vn -0.09071468 -0.26188904 0.96082515
vn -0.111389 0.16256443 0.98039037
vn 0.894177 0.096280664 -0.43723857
vn 0.88144594 0.054692015 -0.4691074
vn 0.94770753 0.29449016 -0.12298815
vn 0.9062081 -0.41413224 0.085331365
vn 0.9735809 0.11325007 0.19827941
vn 0.9187976 0.2076247 0.33571276
vn 0.9735809 0.11325007 0.19827941
vn 0.9302678 -0.31583893 -0.18667498
vn 0.9846156 0.11628589 -0.13042122
vn 0.9062081 -0.41413224 0.085331365
vn 0.7112365 -0.7029455 -0.0032285887
vn 0.82077926 -0.56053567 -0.11009619
vn 0.16246878 0.12779936 0.9784024
vn 0.23379794 -0.73296076 0.6388325
vn 0.60791534 0.24250212 0.75606334
vn -0.19319181 0.9800931 0.0457634
vn -0.01831496 0.5171329 0.85570914
vn -0.15085563 0.9492631 0.27593866
vn -0.12039656 0.9703765 -0.20946136
vn 0.012699448 0.9865332 0.16306658
vn 0.2314287 0.96685886 0.107818075
vn 0.13415605 0.9235812 0.35916558
vn 0.01715934 0.6831093 0.7301146
vn 0.43542936 0.70573384 0.55887485
vn 0.20100665 0.04743459 0.9784407
vn 0.23379794 -0.73296076 0.6388325
vn 0.16246878 0.12779936 0.9784024
vn 0.10320983 -0.50282025 0.85820717
vn 0.20100665 0.04743459 0.9784407
vn -0.09071468 -0.26188904 0.96082515
vn 0.90199924 -0.2878441 -0.3217813
vn 0.91884285 -0.015106907 -0.39433426
vn 0.8615039 -0.2705798 -0.42964825
vn -0.54157096 -0.09949699 0.83474624
vn -0.7278937 0.07965276 0.6810477
vn -0.5981785 0.3304117 0.7300758
vn -0.14836322 0.8774313 -0.45618272
vn -0.3956053 0.4086316 0.8225064
vn -0.071370944 0.7616569 0.644038
vn -0.14836322 0.8774313 -0.45618272
vn -0.11573226 0.80848545 -0.57702446
vn -0.3956053 0.4086316 0.8225064
vn -0.11573226 0.80848545 -0.57702446
vn -0.76685226 0.50887346 0.3911336
vn -0.3956053 0.4086316 0.8225064
vn -0.8395494 0.5431486 -0.012100525
vn 0.29712126 0.9547635 0.012072379
vn 0.20235755 0.59474224 -0.77803165
vn -0.24468076 -0.35106534 -0.9038166
vn -0.91662127 0.17489462 -0.3594682
vn 0.20235755 0.59474224 -0.77803165
vn 0.98461956 -0.1196414 -0.12731951
vn 0.20235755 0.59474224 -0.77803165
vn 0.29712126 0.9547635 0.012072379
vn -0.4213714 0.7853616 -0.45349005
vn -0.36466697 0.82194686 -0.43751732
vn -0.43953007 0.8714762 -0.21758343
vn -0.19319181 0.9800931 0.0457634
vn -0.42120445 0.7982354 -0.43058914
vn -0.14836322 0.8774313 -0.45618272
vn 0.8446857 0.2886512 0.45076218
vn 0.7608305 0.43285954 0.48349723
vn 0.9804388 0.11655909 0.15859905
vn 0.7608305 0.43285954 0.48349723
vn 0.9402379 -0.13955367 0.3106082
vn 0.9804388 0.11655909 0.15859905
vn 0.77308035 0.13461041 0.6198603
vn 0.9402379 -0.13955367 0.3106082
vn 0.7608305 0.43285954 0.48349723
vn 0.9670974 -0.24788082 0.057251945
vn 0.53683245 -0.84338325 -0.022704909
vn 0.46169448 -0.034556244 0.88636565
vn 0.6479578 0.22729562 0.72697145
vn 0.975681 -0.042895604 0.21495701
vn 0.9679924 -0.06633173 0.24205533
vn 0.1336683 -0.9748432 0.17836362
vn 0.8478176 -0.52962416 0.026527533
vn 0.6719877 -0.57450396 0.46730894
vn 0.975681 -0.042895604 0.21495701
vn 0.6793746 -0.7102844 -0.18424498
vn 0.9458627 -0.29997587 -0.123928115
vn -0.42688766 -0.8009041 -0.41990432
vn -0.55782366 -0.80498797 -0.2020573
vn -0.7051669 -0.63658243 -0.31225413
vn -0.6472923 -0.43486 -0.62602675
vn -0.36454868 0.91053754 -0.1950017
vn -0.33041072 0.85820806 -0.39282012
vn -0.41084135 0.8600547 -0.30251518
vn 0.15037698 -0.23883867 0.9593451
vn 0.0212409 -0.22659555 0.9737573
vn 0.0015327948 -0.092717424 0.9956913
vn 0.14652151 -0.12807873 0.98088086
vn 0.1428523 -0.09201838 -0.9854572
vn -0.03239395 -0.2609615 -0.96480554
vn -0.13000312 -0.4734303 -0.87118477
vn -0.0273661 -0.32640496 -0.9448338
vn -0.043856747 0.88285476 -0.467594
vn 0.3088805 0.90599364 -0.28942737
vn 0.15628043 0.97589296 -0.15234697
vn -0.7033477 -0.46852902 0.5345864
vn -0.76829565 -0.56167156 0.3069965
vn -0.47031426 -0.8688647 0.15452719
vn -0.38242537 -0.74299836 0.5492761
vn 0.91133684 -0.41102755 0.022835225
vn 0.9566064 -0.092610806 -0.27627447
vn 0.90199924 -0.2878441 -0.3217813
vn -0.0038779639 -0.9994326 -0.03345937
vn 0.0047094366 -0.9821206 -0.18819398
vn 0.22468169 -0.9609294 -0.16165604
vn 0.17918643 -0.9835396 -0.023284046
vn 0.38284242 -0.18380705 -0.90534335
vn 0.15093888 -0.06205712 -0.9865933
vn 0.14690298 0.123775125 -0.9813762
vn 0.30521998 0.0056354916 -0.95226514
vn 0.13484128 0.9264283 -0.3514945
vn 0.020469336 0.9970887 -0.0734513
vn 0.20199634 0.9787135 -0.03629683
vn -0.022713583 0.6909839 0.72251314
vn -0.100185946 0.5111391 0.853639
vn 0.062156156 0.59636 0.80030704
vn 0.008272875 0.5553856 0.8315517
vn -0.38242537 -0.74299836 0.5492761
vn -0.15441154 -0.67161167 0.7246343
vn -0.24340001 -0.27266666 0.9308111
vn -0.50157297 -0.31488788 0.8057731
vn -0.0959465 -0.9438937 0.31600487
vn -0.15441154 -0.67161167 0.7246343
vn -0.38242537 -0.74299836 0.5492761
vn -0.2165861 0.67757374 0.7028402
vn -0.022713583 0.6909839 0.72251314
vn -0.014002337 0.8746747 0.4845081
vn -0.28197432 0.87194586 0.4002511
vn -0.26284388 -0.86948764 -0.41821578
vn -0.30445644 -0.6736548 -0.67342085
vn -0.13000312 -0.4734303 -0.87118477
vn -0.18168363 -0.7911198 -0.58405524
vn 0.26326635 -0.4412193 0.85791385
vn 0.6719877 -0.57450396 0.46730894
vn 0.7828607 0.091405645 0.6154463
vn 0.22749169 0.025729576 0.97344005
vn 0.13484128 0.9264283 -0.3514945
vn 0.1722362 0.7933701 -0.58386517
vn -0.065549456 0.8276019 -0.5574749
vn 0.26326635 -0.4412193 0.85791385
vn 0.22749169 0.025729576 0.97344005
vn 0.0015327948 -0.092717424 0.9956913
vn 0.024466453 -0.62453145 0.78061634
vn 0.26326635 -0.4412193 0.85791385
vn 0.024466453 -0.62453145 0.78061634
vn 0.1336683 -0.9748432 0.17836362
vn 0.6719877 -0.57450396 0.46730894
vn 0.6218788 -0.5856866 -0.5198441
vn 0.33499017 -0.6729705 -0.6594637
vn 0.38284242 -0.18380705 -0.90534335
vn 0.74172205 -0.285761 -0.6067859
vn 0.6218788 -0.5856866 -0.5198441
vn 0.6793746 -0.7102844 -0.18424498
vn 0.22468169 -0.9609294 -0.16165604
vn 0.33499017 -0.6729705 -0.6594637
vn -0.05380085 0.4239777 -0.9040732
vn 0.28930393 0.6300883 -0.7206192
vn -0.23823875 0.54658043 -0.8028027
vn -0.23668674 0.2838313 -0.9292035
vn -0.028687045 -0.98401093 -0.17578211
vn -0.06596351 -0.98156303 -0.17939529
vn -0.08620662 -0.7238562 -0.68454415
vn 0.082367554 -0.64842176 -0.7568123
vn 0.082367554 -0.64842176 -0.7568123
vn -0.08620662 -0.7238562 -0.68454415
vn -0.03239395 -0.2609615 -0.96480554
vn 0.049687564 -0.09986285 -0.9937599
vn -0.037572682 -0.65844834 0.7516875
vn -0.02573444 -0.65280026 0.7570929
vn -0.0959465 -0.9438937 0.31600487
vn -0.068622775 -0.9789301 0.19231904
vn 0.4117807 0.7155048 -0.5643487
vn 0.1722362 0.7933701 -0.58386517
vn 0.3088805 0.90599364 -0.28942737
vn 0.40846878 0.51040345 -0.75673085
vn 0.1722362 0.7933701 -0.58386517
vn 0.4117807 0.7155048 -0.5643487
vn -0.068622775 -0.9789301 0.19231904
vn -0.022340916 -0.9930104 0.115893245
vn -0.06746735 -0.68115866 0.72902066
vn -0.037572682 -0.65844834 0.7516875
vn -0.26506817 0.42325568 0.86636794
vn -0.12699708 0.4217509 0.8977739
vn -0.044578902 0.421247 0.9058497
vn 0.0068695233 0.42317352 0.90602267
vn -0.12699708 0.4217509 0.8977739
vn -0.26506817 0.42325568 0.86636794
vn 0.016423529 0.6945033 0.71930194
vn -0.26504812 0.75083023 0.60498226
vn -0.03793509 0.7823395 0.62169594
vn 0.016423529 0.6945033 0.71930194
vn -0.26506817 0.42325568 0.86636794
vn -0.3892808 -0.39157203 -0.8337458
vn -0.6472923 -0.43486 -0.62602675
vn -0.72323173 0.06604443 -0.6874403
vn -0.4287991 0.013968153 -0.9032919
vn -0.48008928 0.22028325 0.849111
vn -0.5338452 -0.051152166 0.8440336
vn -0.25384396 0.018754663 0.96706337
vn -0.4287991 0.013968153 -0.9032919
vn -0.72323173 0.06604443 -0.6874403
vn -0.69051504 0.32716137 -0.6451003
vn -0.3611043 0.2644022 -0.8942568
vn -0.3611043 0.2644022 -0.8942568
vn -0.023288181 0.12527397 -0.9918488
vn -0.06575873 -0.15238814 -0.9861306
vn -0.4287991 0.013968153 -0.9032919
vn 0.2371348 0.08996406 -0.9673022
vn 0.19443303 0.115504175 -0.9740917
vn 0.39321956 0.17281571 -0.9030576
vn 0.6929847 0.04054609 -0.7198112
vn -0.3892808 -0.39157203 -0.8337458
vn -0.4287991 0.013968153 -0.9032919
vn -0.06575873 -0.15238814 -0.9861306
vn 0.6929847 0.04054609 -0.7198112
vn 0.39321956 0.17281571 -0.9030576
vn 0.7373891 0.17067684 -0.6535492
vn 0.9566064 -0.092610806 -0.27627447
vn 0.19281638 -0.063662454 0.9791675
vn 0.63404375 -0.03517986 0.7724966
vn 0.119668335 -0.80288345 0.5840014
vn -0.35062978 -0.7200079 0.59887177
vn 0.9863571 -0.15183108 -0.06361575
vn 0.6929847 0.04054609 -0.7198112
vn 0.9566064 -0.092610806 -0.27627447
vn 0.63404375 -0.03517986 0.7724966
vn 0.19281638 -0.063662454 0.9791675
vn 0.6721098 0.30589285 0.67431283
vn -0.1667431 -0.2828654 0.94455487
vn 0.19281638 -0.063662454 0.9791675
vn -0.35062978 -0.7200079 0.59887177
vn -0.6441872 -0.6155541 0.45400003
vn 0.19281638 -0.063662454 0.9791675
vn -0.1667431 -0.2828654 0.94455487
vn 0.15734889 0.32167912 0.933683
vn 0.30680054 0.1918803 0.9322313
vn 0.30680054 0.1918803 0.9322313
vn 0.26112714 0.17675063 0.9489846
vn 0.6721098 0.30589285 0.67431283
vn 0.19281638 -0.063662454 0.9791675
vn -0.07332541 0.05444748 0.9958207
vn -0.050080135 -0.24977043 0.9670092
vn 0.09204353 -0.17278989 0.9806485
vn 0.13168553 0.11511687 0.98458475
vn 0.18313313 -0.07115553 -0.9805096
vn 0.1839586 -0.04906276 -0.98170877
vn 0.26634678 -0.051724672 -0.9624884
vn 0.18569699 0.008370902 -0.98257136
vn 0.1839586 -0.04906276 -0.98170877
vn 0.18313313 -0.07115553 -0.9805096
vn 0.18050757 -0.10617524 -0.9778262
vn -0.38242537 -0.74299836 0.5492761
vn -0.47031426 -0.8688647 0.15452719
vn -0.13619359 -0.99025106 0.029224085
vn -0.0959465 -0.9438937 0.31600487
vn -0.54157096 -0.09949699 0.83474624
vn -0.40146708 0.11318436 0.9088529
vn -0.7278937 0.07965276 0.6810477
vn -0.76829565 -0.56167156 0.3069965
vn -0.7033477 -0.46852902 0.5345864
vn -0.7627772 -0.17624699 0.6221799
vn -0.8933703 -0.22268052 0.39026025
vn 0.7828607 0.091405645 0.6154463
vn 0.6719877 -0.57450396 0.46730894
vn 0.8478176 -0.52962416 0.026527533
vn 0.9804388 0.11655909 0.15859905
vn -0.2631006 0.93292326 -0.24583004
vn -0.49226123 0.8703502 -0.013016717
vn -0.29618666 0.9517618 0.08014311
vn -0.2631006 0.93292326 -0.24583004
vn -0.29618666 0.9517618 0.08014311
vn 0.020469336 0.9970887 -0.0734513
vn 0.788278 -0.6150233 -0.01907814
vn 0.74907184 -0.6219187 0.22827305
vn 0.17918643 -0.9835396 -0.023284046
vn -0.19627585 0.91887957 0.34225145
vn 0.03742809 0.89308465 0.44832915
vn -0.03793509 0.7823395 0.62169594
vn -0.26504812 0.75083023 0.60498226
vn 0.14337517 0.9860582 0.08445549
vn -0.01932538 0.9713784 -0.23675004
vn 0.15628043 0.97589296 -0.15234697
vn 0.283247 0.9553114 -0.08456551
vn 0.69048923 -0.6488147 0.31978762
vn 0.8645977 -0.07522478 0.49680182
vn 0.9268526 -0.20048267 0.31741294
vn 0.91133684 -0.41102755 0.022835225
vn 0.20199634 0.9787135 -0.03629683
vn 0.14337517 0.9860582 0.08445549
vn 0.283247 0.9553114 -0.08456551
vn 0.887477 -0.10090423 0.44966972
vn 0.9268526 -0.20048267 0.31741294
vn 0.8645977 -0.07522478 0.49680182
vn -0.9925262 0.11532188 0.039908677
vn -0.9494506 0.31332836 -0.019200873
vn -0.8545526 0.3419786 -0.3908843
vn -0.91654694 0.11579609 -0.38279632
vn -0.91654694 0.11579609 -0.38279632
vn -0.8944841 -0.24243903 -0.37566143
vn -0.9811388 -0.1903974 0.0333964
vn -0.9925262 0.11532188 0.039908677
vn -0.39086396 0.4551178 0.80005825
vn -0.100185946 0.5111391 0.853639
vn -0.022713583 0.6909839 0.72251314
vn -0.2165861 0.67757374 0.7028402
vn -0.15085563 0.9492631 0.27593866
vn -0.01831496 0.5171329 0.85570914
vn 0.01715934 0.6831093 0.7301146
vn -0.7309508 -0.6794494 0.06371465
vn -0.55782366 -0.80498797 -0.2020573
vn -0.41558376 -0.90455914 -0.09519889
vn -0.065549456 0.8276019 -0.5574749
vn -0.2631006 0.93292326 -0.24583004
vn 0.020469336 0.9970887 -0.0734513
vn 0.13484128 0.9264283 -0.3514945
vn -0.30445644 -0.6736548 -0.67342085
vn -0.3892808 -0.39157203 -0.8337458
vn -0.0273661 -0.32640496 -0.9448338
vn -0.13000312 -0.4734303 -0.87118477
vn -0.2631006 0.93292326 -0.24583004
vn -0.065549456 0.8276019 -0.5574749
vn -0.35607255 0.7593002 -0.54467934
vn -0.42688766 -0.8009041 -0.41990432
vn -0.6472923 -0.43486 -0.62602675
vn -0.3892808 -0.39157203 -0.8337458
vn -0.30445644 -0.6736548 -0.67342085
vn -0.18168363 -0.7911198 -0.58405524
vn -0.08620662 -0.7238562 -0.68454415
vn -0.06596351 -0.98156303 -0.17939529
vn -0.26284388 -0.86948764 -0.41821578
vn -0.03239395 -0.2609615 -0.96480554
vn -0.08620662 -0.7238562 -0.68454415
vn -0.18168363 -0.7911198 -0.58405524
vn -0.13000312 -0.4734303 -0.87118477
vn 0.28930393 0.6300883 -0.7206192
vn 0.4117807 0.7155048 -0.5643487
vn 0.3088805 0.90599364 -0.28942737
vn -0.043856747 0.88285476 -0.467594
vn 0.33217418 0.51804817 -0.78821725
vn 0.40846878 0.51040345 -0.75673085
vn 0.4117807 0.7155048 -0.5643487
vn 0.28930393 0.6300883 -0.7206192
vn 0.6793746 -0.7102844 -0.18424498
vn 0.6218788 -0.5856866 -0.5198441
vn 0.74172205 -0.285761 -0.6067859
vn 0.9458627 -0.29997587 -0.123928115
vn 0.30521998 0.0056354916 -0.95226514
vn 0.7507662 -0.119619094 -0.64964706
vn 0.74172205 -0.285761 -0.6067859
vn 0.38284242 -0.18380705 -0.90534335
vn 0.788278 -0.6150233 -0.01907814
vn 0.17918643 -0.9835396 -0.023284046
vn 0.22468169 -0.9609294 -0.16165604
vn 0.6793746 -0.7102844 -0.18424498
vn -0.26504812 0.75083023 0.60498226
vn -0.50454164 0.6421077 0.57717884
vn -0.44954258 0.85696125 0.25204933
vn -0.19627585 0.91887957 0.34225145
vn 0.22749169 0.025729576 0.97344005
vn 0.26112714 0.17675063 0.9489846
vn 0.14652151 -0.12807873 0.98088086
vn 0.0015327948 -0.092717424 0.9956913
vn 0.6721098 0.30589285 0.67431283
vn 0.26112714 0.17675063 0.9489846
vn 0.22749169 0.025729576 0.97344005
vn 0.7828607 0.091405645 0.6154463
vn 0.024466453 -0.62453145 0.78061634
vn -0.06746735 -0.68115866 0.72902066
vn -0.022340916 -0.9930104 0.115893245
vn 0.1336683 -0.9748432 0.17836362
vn 0.0015327948 -0.092717424 0.9956913
vn 0.0212409 -0.22659555 0.9737573
vn -0.06746735 -0.68115866 0.72902066
vn 0.024466453 -0.62453145 0.78061634
vn -0.022713583 0.6909839 0.72251314
vn 0.016423529 0.6945033 0.71930194
vn -0.03793509 0.7823395 0.62169594
vn -0.014002337 0.8746747 0.4845081
vn 0.33499017 -0.6729705 -0.6594637
vn 0.22468169 -0.9609294 -0.16165604
vn 0.0047094366 -0.9821206 -0.18819398
vn 0.082367554 -0.64842176 -0.7568123
vn 0.15093888 -0.06205712 -0.9865933
vn 0.38284242 -0.18380705 -0.90534335
vn 0.33499017 -0.6729705 -0.6594637
vn 0.082367554 -0.64842176 -0.7568123
vn -0.50454164 0.6421077 0.57717884
vn -0.26504812 0.75083023 0.60498226
vn 0.0068695233 0.42317352 0.90602267
vn -0.40146708 0.11318436 0.9088529
vn -0.0959465 -0.9438937 0.31600487
vn -0.02573444 -0.65280026 0.7570929
vn -0.15441154 -0.67161167 0.7246343
vn -0.052542415 0.32562086 0.94403934
vn -0.40146708 0.11318436 0.9088529
vn 0.0068695233 0.42317352 0.90602267
vn -0.044578902 0.421247 0.9058497
vn -0.037572682 -0.65844834 0.7516875
vn 0.09204353 -0.17278989 0.9806485
vn -0.050080135 -0.24977043 0.9670092
vn -0.02573444 -0.65280026 0.7570929
vn -0.068622775 -0.9789301 0.19231904
vn -0.0959465 -0.9438937 0.31600487
vn -0.13619359 -0.99025106 0.029224085
vn 0.0212409 -0.22659555 0.9737573
vn 0.15037698 -0.23883867 0.9593451
vn 0.09204353 -0.17278989 0.9806485
vn -0.037572682 -0.65844834 0.7516875
vn 0.7373891 0.17067684 -0.6535492
vn 0.39321956 0.17281571 -0.9030576
vn 0.10544467 0.3462853 -0.9321844
vn 0.5092125 0.3031513 -0.80548245
vn 0.049687564 -0.09986285 -0.9937599
vn -0.03239395 -0.2609615 -0.96480554
vn 0.1428523 -0.09201838 -0.9854572
vn -0.50157297 -0.31488788 0.8057731
vn -0.7627772 -0.17624699 0.6221799
vn -0.7033477 -0.46852902 0.5345864
vn -0.3611043 0.2644022 -0.8942568
vn -0.69051504 0.32716137 -0.6451003
vn -0.54419994 0.54552394 -0.6373775
vn 0.19443303 0.115504175 -0.9740917
vn 0.2300811 0.1657614 -0.9589504
vn 0.10544467 0.3462853 -0.9321844
vn 0.39321956 0.17281571 -0.9030576
vn 0.18050757 -0.10617524 -0.9778262
vn -0.06575873 -0.15238814 -0.9861306
vn -0.023288181 0.12527397 -0.9918488
vn 0.1839586 -0.04906276 -0.98170877
vn -0.0054914793 0.37651843 0.9263929
vn -0.07332541 0.05444748 0.9958207
vn 0.12355637 0.42054644 0.8988184
vn 0.35559887 0.20483586 -0.91191655
vn 0.26634678 -0.051724672 -0.9624884
vn 0.1839586 -0.04906276 -0.98170877
vn -0.0273661 -0.32640496 -0.9448338
vn -0.06575873 -0.15238814 -0.9861306
vn 0.18050757 -0.10617524 -0.9778262
vn 0.1428523 -0.09201838 -0.9854572
vn 0.14652151 -0.12807873 0.98088086
vn 0.26112714 0.17675063 0.9489846
vn 0.09204353 -0.17278989 0.9806485
vn 0.15037698 -0.23883867 0.9593451
vn 0.14503263 0.36887833 0.9180928
vn 0.13168553 0.11511687 0.98458475
vn 0.30680054 0.1918803 0.9322313
vn 0.18569699 0.008370902 -0.98257136
vn 0.26634678 -0.051724672 -0.9624884
vn 0.19443303 0.115504175 -0.9740917
vn 0.2371348 0.08996406 -0.9673022
vn -0.25384396 0.018754663 0.96706337
vn -0.24340001 -0.27266666 0.9308111
vn -0.050080135 -0.24977043 0.9670092
vn 0.119668335 -0.80288345 0.5840014
vn 0.11476255 -0.9602306 0.25453243
vn -0.069806695 -0.916717 0.3933915
vn 0.30521998 0.0056354916 -0.95226514
vn 0.14690298 0.123775125 -0.9813762
vn 0.18313313 -0.07115553 -0.9805096
vn 0.2371348 0.08996406 -0.9673022
vn -0.72323173 0.06604443 -0.6874403
vn -0.91654694 0.11579609 -0.38279632
vn -0.8545526 0.3419786 -0.3908843
vn -0.69051504 0.32716137 -0.6451003
vn -0.45985758 -0.3899945 0.79776895
vn -0.6441872 -0.6155541 0.45400003
vn -0.35062978 -0.7200079 0.59887177
vn -0.20039153 -0.7497055 0.6307019
vn -0.42688766 -0.8009041 -0.41990432
vn -0.26284388 -0.86948764 -0.41821578
vn -0.41558376 -0.90455914 -0.09519889
vn -0.55782366 -0.80498797 -0.2020573
vn -0.13912193 -0.981307 -0.13297175
vn -0.41558376 -0.90455914 -0.09519889
vn -0.26284388 -0.86948764 -0.41821578
vn 0.3088805 0.90599364 -0.28942737
vn 0.13484128 0.9264283 -0.3514945
vn 0.20199634 0.9787135 -0.03629683
vn 0.283247 0.9553114 -0.08456551
vn -0.031683367 0.9746513 0.22147465
vn 0.020469336 0.9970887 -0.0734513
vn -0.29618666 0.9517618 0.08014311
vn 0.17918643 -0.9835396 -0.023284046
vn 0.74907184 -0.6219187 0.22827305
vn 0.53683245 -0.84338325 -0.022704909
vn -0.4213714 0.7853616 -0.45349005
vn -0.043856747 0.88285476 -0.467594
vn -0.36466697 0.82194686 -0.43751732
vn 0.91133684 -0.41102755 0.022835225
vn 0.9268526 -0.20048267 0.31741294
vn 0.9863571 -0.15183108 -0.06361575
vn 0.9566064 -0.092610806 -0.27627447
vn 0.283247 0.9553114 -0.08456551
vn 0.15628043 0.97589296 -0.15234697
vn 0.3088805 0.90599364 -0.28942737
vn 0.0047094366 -0.9821206 -0.18819398
vn -0.0038779639 -0.9994326 -0.03345937
vn -0.028687045 -0.98401093 -0.17578211
vn 0.82077926 -0.56053567 -0.11009619
vn 0.90199924 -0.2878441 -0.3217813
vn 0.8615039 -0.2705798 -0.42964825
vn 0.9302678 -0.31583893 -0.18667498
vn 0.74907184 -0.6219187 0.22827305
vn 0.6479578 0.22729562 0.72697145
vn 0.46169448 -0.034556244 0.88636565
vn 0.53683245 -0.84338325 -0.022704909
vn 0.87802166 0.39665392 0.26784998
vn 0.9735809 0.11325007 0.19827941
vn 0.9846156 0.11628589 -0.13042122
vn -0.043856747 0.88285476 -0.467594
vn 0.15628043 0.97589296 -0.15234697
vn -0.01932538 0.9713784 -0.23675004
vn -0.36466697 0.82194686 -0.43751732
vn 0.9670974 -0.24788082 0.057251945
vn 0.8446857 0.2886512 0.45076218
vn 0.9804388 0.11655909 0.15859905
vn 0.8478176 -0.52962416 0.026527533
vn 0.53683245 -0.84338325 -0.022704909
vn -0.8613224 -0.485051 0.15115969
vn -0.8126595 -0.5769879 -0.08166675
vn -0.55782366 -0.80498797 -0.2020573
vn -0.7309508 -0.6794494 0.06371465
vn -0.13912193 -0.981307 -0.13297175
vn -0.13619359 -0.99025106 0.029224085
vn -0.47031426 -0.8688647 0.15452719
vn -0.41558376 -0.90455914 -0.09519889
vn -0.41558376 -0.90455914 -0.09519889
vn -0.47031426 -0.8688647 0.15452719
vn -0.76829565 -0.56167156 0.3069965
vn -0.7309508 -0.6794494 0.06371465
vn -0.49226123 0.8703502 -0.013016717
vn -0.59551674 0.7503506 0.2869387
vn -0.28197432 0.87194586 0.4002511
vn -0.29618666 0.9517618 0.08014311
vn -0.29618666 0.9517618 0.08014311
vn -0.28197432 0.87194586 0.4002511
vn -0.014002337 0.8746747 0.4845081
vn -0.031683367 0.9746513 0.22147465
vn 0.53683245 -0.84338325 -0.022704909
vn 0.8478176 -0.52962416 0.026527533
vn 0.1336683 -0.9748432 0.17836362
vn 0.17918643 -0.9835396 -0.023284046
vn -0.30830473 0.9504114 -0.040821254
vn -0.42120445 0.7982354 -0.43058914
vn -0.41084135 0.8600547 -0.30251518
vn -0.36466697 0.82194686 -0.43751732
vn 0.14337517 0.9860582 0.08445549
vn 0.121460415 0.9569639 0.26356676
vn 0.03742809 0.89308465 0.44832915
vn -0.19627585 0.91887957 0.34225145
vn 0.8645977 -0.07522478 0.49680182
vn 0.69048923 -0.6488147 0.31978762
vn 0.119668335 -0.80288345 0.5840014
vn 0.63404375 -0.03517986 0.7724966
vn -0.0038779639 -0.9994326 -0.03345937
vn -0.068622775 -0.9789301 0.19231904
vn -0.028687045 -0.98401093 -0.17578211
vn -0.068622775 -0.9789301 0.19231904
vn -0.13619359 -0.99025106 0.029224085
vn -0.0346148 -0.99794376 -0.05394606
vn -0.9925262 0.11532188 0.039908677
vn -0.9811388 -0.1903974 0.0333964
vn -0.8933703 -0.22268052 0.39026025
vn -0.9042006 0.15460898 0.3981423
vn -0.7309508 -0.6794494 0.06371465
vn -0.76829565 -0.56167156 0.3069965
vn -0.8933703 -0.22268052 0.39026025
vn -0.8613224 -0.485051 0.15115969
vn 0.13415605 0.9235812 0.35916558
vn 0.3554082 0.90719247 0.2251374
vn 0.012699448 0.9865332 0.16306658
vn 0.119668335 -0.80288345 0.5840014
vn 0.69048923 -0.6488147 0.31978762
vn 0.44039562 -0.87333864 0.20816167
vn 0.121460415 0.9569639 0.26356676
vn -0.031683367 0.9746513 0.22147465
vn -0.014002337 0.8746747 0.4845081
vn 0.03742809 0.89308465 0.44832915
vn -0.13619359 -0.99025106 0.029224085
vn -0.13912193 -0.981307 -0.13297175
vn -0.0346148 -0.99794376 -0.05394606
vn -0.67285264 0.7397179 0.00931802
vn -0.56480974 0.7542694 -0.33476496
vn -0.7439925 0.5353079 -0.39990065
vn -0.83259875 0.52581495 -0.17406315
vn -0.59551674 0.7503506 0.2869387
vn -0.49226123 0.8703502 -0.013016717
vn -0.67285264 0.7397179 0.00931802
vn 0.12355637 0.42054644 0.8988184
vn 0.008272875 0.5553856 0.8315517
vn 0.062156156 0.59636 0.80030704
vn -0.0054914793 0.37651843 0.9263929
vn -0.83259875 0.52581495 -0.17406315
vn -0.8553055 0.4984921 0.14127317
vn -0.67285264 0.7397179 0.00931802
vn 0.35559887 0.20483586 -0.91191655
vn 0.13267049 0.21030821 -0.9685913
vn 0.17723313 0.4376045 -0.8815275
vn -0.82000613 0.1398653 0.5550022
vn -0.052542415 0.32562086 0.94403934
vn 0.15734889 0.32167912 0.933683
vn -0.5968633 -0.31836107 0.7364783
vn 0.33217418 0.51804817 -0.78821725
vn -0.1520893 0.535501 -0.8307271
vn 0.10544467 0.3462853 -0.9321844
vn 0.28418204 0.40922874 -0.8670481
vn -0.7037722 0.33675328 0.62554127
vn -0.48008928 0.22028325 0.849111
vn -0.39086396 0.4551178 0.80005825
vn -0.5386131 0.64111954 0.5466823
vn -0.21843627 0.51712245 -0.8275686
vn -0.54419994 0.54552394 -0.6373775
vn -0.35607255 0.7593002 -0.54467934
vn -0.065549456 0.8276019 -0.5574749
vn 0.10221691 0.6308216 -0.7691658
vn 0.0028831067 0.44871375 -0.8936708
vn -0.21843627 0.51712245 -0.8275686
vn 0.15401785 0.28698638 -0.945472
vn -0.1520893 0.535501 -0.8307271
vn -0.05380085 0.4239777 -0.9040732
vn -0.23668674 0.2838313 -0.9292035
vn -0.043856747 0.88285476 -0.467594
vn -0.4213714 0.7853616 -0.45349005
vn -0.23823875 0.54658043 -0.8028027
vn 0.28930393 0.6300883 -0.7206192
vn -0.7278937 0.07965276 0.6810477
vn -0.052542415 0.32562086 0.94403934
vn -0.82000613 0.1398653 0.5550022
vn -0.12699708 0.4217509 0.8977739
vn 0.008272875 0.5553856 0.8315517
vn -0.044578902 0.421247 0.9058497
vn -0.49226123 0.8703502 -0.013016717
vn -0.2631006 0.93292326 -0.24583004
vn -0.56480974 0.7542694 -0.33476496
vn -0.67285264 0.7397179 0.00931802
vn -0.8553055 0.4984921 0.14127317
vn -0.8152322 0.43027142 0.38763765
vn -0.59551674 0.7503506 0.2869387
vn -0.67285264 0.7397179 0.00931802
vn -0.17870738 0.31646794 0.93161774
vn -0.0054914793 0.37651843 0.9263929
vn 0.062156156 0.59636 0.80030704
vn -0.100185946 0.5111391 0.853639
vn -0.5386131 0.64111954 0.5466823
vn -0.59551674 0.7503506 0.2869387
vn -0.8152322 0.43027142 0.38763765
vn 0.33217418 0.51804817 -0.78821725
vn 0.28418204 0.40922874 -0.8670481
vn 0.35559887 0.20483586 -0.91191655
vn 0.40846878 0.51040345 -0.75673085
vn 0.0028831067 0.44871375 -0.8936708
vn 0.17723313 0.4376045 -0.8815275
vn 0.13267049 0.21030821 -0.9685913
vn -0.54419994 0.54552394 -0.6373775
vn -0.7439925 0.5353079 -0.39990065
vn -0.56480974 0.7542694 -0.33476496
vn -0.35607255 0.7593002 -0.54467934
vn 0.887617 0.46053082 0.006884881
vn 0.6842823 0.7290852 -0.0138757
vn 0.68747926 0.7244767 -0.05005749
vn 0.9957754 -0.076288916 -0.05110196
vn 0.9863571 -0.15183108 -0.06361575
vn 0.9268526 -0.20048267 0.31741294
vn 0.887477 -0.10090423 0.44966972
vn 0.15734889 0.32167912 0.933683
vn -0.052542415 0.32562086 0.94403934
vn -0.044578902 0.421247 0.9058497
vn -0.8933703 -0.22268052 0.39026025
vn -0.9811388 -0.1903974 0.0333964
vn -0.8613224 -0.485051 0.15115969
vn -0.6472923 -0.43486 -0.62602675
vn -0.8944841 -0.24243903 -0.37566143
vn -0.91654694 0.11579609 -0.38279632
vn -0.72323173 0.06604443 -0.6874403
vn 0.26112714 0.17675063 0.9489846
vn 0.30680054 0.1918803 0.9322313
vn 0.13168553 0.11511687 0.98458475
vn 0.09204353 -0.17278989 0.9806485
vn -0.8933703 -0.22268052 0.39026025
vn -0.7627772 -0.17624699 0.6221799
vn -0.7584067 0.07811916 0.6470833
vn -0.9042006 0.15460898 0.3981423
vn -0.9811388 -0.1903974 0.0333964
vn -0.8944841 -0.24243903 -0.37566143
vn -0.7051669 -0.63658243 -0.31225413
vn -0.8126595 -0.5769879 -0.08166675
vn 0.049687564 -0.09986285 -0.9937599
vn 0.1428523 -0.09201838 -0.9854572
vn 0.18050757 -0.10617524 -0.9778262
vn 0.18313313 -0.07115553 -0.9805096
vn 0.7507662 -0.119619094 -0.64964706
vn 0.30521998 0.0056354916 -0.95226514
vn 0.2371348 0.08996406 -0.9673022
vn 0.6929847 0.04054609 -0.7198112
vn 0.14690298 0.123775125 -0.9813762
vn 0.049687564 -0.09986285 -0.9937599
vn 0.18313313 -0.07115553 -0.9805096
vn -0.5338452 -0.051152166 0.8440336
vn -0.50157297 -0.31488788 0.8057731
vn -0.24340001 -0.27266666 0.9308111
vn -0.25384396 0.018754663 0.96706337
vn 0.9957754 -0.076288916 -0.05110196
vn 0.7507662 -0.119619094 -0.64964706
vn 0.6929847 0.04054609 -0.7198112
vn 0.2300811 0.1657614 -0.9589504
vn 0.19443303 0.115504175 -0.9740917
vn 0.26634678 -0.051724672 -0.9624884
vn 0.35559887 0.20483586 -0.91191655
vn -0.7627772 -0.17624699 0.6221799
vn -0.50157297 -0.31488788 0.8057731
vn -0.5338452 -0.051152166 0.8440336
vn -0.8545526 0.3419786 -0.3908843
vn -0.54419994 0.54552394 -0.6373775
vn -0.69051504 0.32716137 -0.6451003
vn -0.17870738 0.31646794 0.93161774
vn -0.25384396 0.018754663 0.96706337
vn -0.07332541 0.05444748 0.9958207
vn -0.0054914793 0.37651843 0.9263929
vn -0.023288181 0.12527397 -0.9918488
vn 0.13267049 0.21030821 -0.9685913
vn 0.1839586 -0.04906276 -0.98170877
vn -0.9042006 0.15460898 0.3981423
vn -0.7584067 0.07811916 0.6470833
vn -0.7037722 0.33675328 0.62554127
vn -0.8152322 0.43027142 0.38763765
vn -0.06884238 0.35377935 0.932792
vn 0.026785351 0.30761456 0.95113397
vn 0.16246878 0.12779936 0.9784024
vn -0.25384396 0.018754663 0.96706337
vn -0.17870738 0.31646794 0.93161774
vn -0.48008928 0.22028325 0.849111
vn -0.8553055 0.4984921 0.14127317
vn -0.9494506 0.31332836 -0.019200873
vn -0.9042006 0.15460898 0.3981423
vn -0.8152322 0.43027142 0.38763765
vn -0.83259875 0.52581495 -0.17406315
vn -0.7439925 0.5353079 -0.39990065
vn -0.8545526 0.3419786 -0.3908843
vn -0.9494506 0.31332836 -0.019200873
vn -0.21843627 0.51712245 -0.8275686
vn 0.0028831067 0.44871375 -0.8936708
vn -0.023288181 0.12527397 -0.9918488
vn -0.3611043 0.2644022 -0.8942568
vn 0.8505032 0.32535788 0.41326305
vn 0.87802166 0.39665392 0.26784998
vn 0.94770753 0.29449016 -0.12298815
vn -0.111389 0.16256443 0.98039037
vn 0.14812115 0.4391635 0.88611263
vn 0.08997824 0.48598865 0.869321
vn 0.8728091 0.142603 -0.46676397
vn 0.7632068 0.21485229 -0.60938823
vn 0.7317265 0.20201208 -0.6509743
vn -0.5968633 -0.31836107 0.7364783
vn 0.15734889 0.32167912 0.933683
vn -0.14607088 -0.47739962 0.86645985
vn 0.15401785 0.28698638 -0.945472
vn 0.5092125 0.3031513 -0.80548245
vn 0.10544467 0.3462853 -0.9321844
vn -0.54157096 -0.09949699 0.83474624
vn -0.4164829 0.0735499 0.9061636
vn -0.71887785 -0.21824653 0.6599873
vn -0.40146708 0.11318436 0.9088529
vn 0.7830703 0.51139176 0.35394806
vn 0.87802166 0.39665392 0.26784998
vn 0.8505032 0.32535788 0.41326305
vn -0.41689396 -0.049530428 -0.9076046
vn -0.751083 0.4567454 -0.47671565
vn -0.91662127 0.17489462 -0.3594682
vn -0.19233866 0.108471364 0.9753152
vn -0.54157096 -0.09949699 0.83474624
vn -0.5981785 0.3304117 0.7300758
vn -0.19233866 0.108471364 0.9753152
vn -0.5981785 0.3304117 0.7300758
vn -0.1596086 0.33174193 0.9297702
vn -0.751083 0.4567454 -0.47671565
vn -0.23823875 0.54658043 -0.8028027
vn -0.4213714 0.7853616 -0.45349005
vn -0.43953007 0.8714762 -0.21758343
vn -0.5981785 0.3304117 0.7300758
vn -0.41655862 0.39810756 0.81730604
vn -0.05530564 0.41162708 0.90967274
vn -0.1596086 0.33174193 0.9297702
vn 0.98461956 -0.1196414 -0.12731951
vn 0.97052115 0.16882098 -0.17201263
vn 0.79708874 -0.37212235 -0.47557807
vn 0.7982482 0.45481727 -0.39489365
vn 0.8728091 0.142603 -0.46676397
vn 0.8611784 0.3149547 -0.39896762
vn 0.94770753 0.29449016 -0.12298815
vn 0.8728091 0.142603 -0.46676397
vn 0.7982482 0.45481727 -0.39489365
vn -0.7042375 0.08594918 0.7047427
vn -0.45985758 -0.3899945 0.79776895
vn -0.111389 0.16256443 0.98039037
vn 0.14812115 0.4391635 0.88611263
vn 0.026785351 0.30761456 0.95113397
vn 0.08997824 0.48598865 0.869321
vn 0.8505032 0.32535788 0.41326305
vn 0.94770753 0.29449016 -0.12298815
vn 0.887617 0.46053082 0.006884881
vn 0.6688354 0.44867566 0.5927473
vn -0.06884238 0.35377935 0.932792
vn 0.60791534 0.24250212 0.75606334
vn 0.5092125 0.3031513 -0.80548245
vn 0.7632068 0.21485229 -0.60938823
vn 0.7373891 0.17067684 -0.6535492
vn -0.05530564 0.41162708 0.90967274
vn 0.01715934 0.6831093 0.7301146
vn -0.1596086 0.33174193 0.9297702
vn 0.08997824 0.48598865 0.869321
vn 0.17215024 0.3617144 0.916257
vn -0.05530564 0.41162708 0.90967274
vn 0.08997824 0.48598865 0.869321
vn 0.026785351 0.30761456 0.95113397
vn 0.17215024 0.3617144 0.916257
vn -0.41655862 0.39810756 0.81730604
vn -0.111389 0.16256443 0.98039037
vn 0.08997824 0.48598865 0.869321
vn -0.05530564 0.41162708 0.90967274
vn 0.15401785 0.28698638 -0.945472
vn 0.65220606 -0.025822587 -0.7576017
vn 0.7317265 0.20201208 -0.6509743
vn -0.111389 0.16256443 0.98039037
vn -0.41655862 0.39810756 0.81730604
vn -0.7042375 0.08594918 0.7047427
vn -0.7042375 0.08594918 0.7047427
vn -0.5981785 0.3304117 0.7300758
vn -0.7278937 0.07965276 0.6810477
vn -0.82000613 0.1398653 0.5550022
vn -0.5981785 0.3304117 0.7300758
vn -0.7042375 0.08594918 0.7047427
vn -0.41655862 0.39810756 0.81730604
vn 0.7632068 0.21485229 -0.60938823
vn 0.5092125 0.3031513 -0.80548245
vn 0.15401785 0.28698638 -0.945472
vn 0.7317265 0.20201208 -0.6509743
vn 0.43542936 0.70573384 0.55887485
vn 0.67899615 0.66483724 0.3113769
vn 0.3554082 0.90719247 0.2251374
vn -0.8138162 -0.25755608 0.5209299
vn -0.7042375 0.08594918 0.7047427
vn -0.82000613 0.1398653 0.5550022
vn -0.5968633 -0.31836107 0.7364783
vn 0.7982482 0.45481727 -0.39489365
vn 0.887617 0.46053082 0.006884881
vn 0.94770753 0.29449016 -0.12298815
vn 0.8469591 0.3763251 0.3755524
vn 0.8505032 0.32535788 0.41326305
vn 0.67899615 0.66483724 0.3113769
vn 0.7830703 0.51139176 0.35394806
vn 0.8505032 0.32535788 0.41326305
vn 0.8469591 0.3763251 0.3755524
vn 0.6688354 0.44867566 0.5927473
vn 0.17215024 0.3617144 0.916257
vn -0.06884238 0.35377935 0.932792
vn 0.65220606 -0.025822587 -0.7576017
vn 0.97052115 0.16882098 -0.17201263
vn 0.8611784 0.3149547 -0.39896762
vn 0.7317265 0.20201208 -0.6509743
vn 0.6842823 0.7290852 -0.0138757
vn 0.7982482 0.45481727 -0.39489365
vn 0.8611784 0.3149547 -0.39896762
vn 0.9187976 0.2076247 0.33571276
vn 0.7830703 0.51139176 0.35394806
vn 0.89499235 0.42380357 0.13920943
vn 0.60791534 0.24250212 0.75606334
vn 0.8505032 0.32535788 0.41326305
vn 0.887617 0.46053082 0.006884881
vn 0.67899615 0.66483724 0.3113769
vn 0.6688354 0.44867566 0.5927473
vn 0.8469591 0.3763251 0.3755524
vn 0.43542936 0.70573384 0.55887485
vn -0.41084135 0.8600547 -0.30251518
vn -0.42120445 0.7982354 -0.43058914
vn -0.19319181 0.9800931 0.0457634
vn -0.36454868 0.91053754 -0.1950017
vn 0.11476255 -0.9602306 0.25453243
vn 0.7898502 -0.5124306 0.33697417
vn 0.5187756 -0.6564262 0.5477012
vn 0.24664198 -0.93304384 0.26191008
vn 0.11476255 -0.9602306 0.25453243
vn 0.119668335 -0.80288345 0.5840014
vn 0.44039562 -0.87333864 0.20816167
vn 0.7112365 -0.7029455 -0.0032285887
vn 0.69048923 -0.6488147 0.31978762
vn 0.91133684 -0.41102755 0.022835225
vn 0.82077926 -0.56053567 -0.11009619
vn 0.5187756 -0.6564262 0.5477012
vn 0.7898502 -0.5124306 0.33697417
vn 0.60791534 0.24250212 0.75606334
vn 0.13415605 0.9235812 0.35916558
vn 0.012699448 0.9865332 0.16306658
vn -0.15085563 0.9492631 0.27593866
vn 0.012699448 0.9865332 0.16306658
vn -0.12039656 0.9703765 -0.20946136
vn -0.36454868 0.91053754 -0.1950017
vn -0.35062978 -0.7200079 0.59887177
vn 0.119668335 -0.80288345 0.5840014
vn -0.069806695 -0.916717 0.3933915
vn -0.20039153 -0.7497055 0.6307019
vn 0.88144594 0.054692015 -0.4691074
vn 0.894177 0.096280664 -0.43723857
vn 0.8615039 -0.2705798 -0.42964825
vn 0.894177 0.096280664 -0.43723857
vn 0.9846156 0.11628589 -0.13042122
vn 0.9302678 -0.31583893 -0.18667498
vn 0.91884285 -0.015106907 -0.39433426
vn 0.9566064 -0.092610806 -0.27627447
vn 0.7373891 0.17067684 -0.6535492
vn 0.20543373 0.5001066 0.8412434
vn 0.026785351 0.30761456 0.95113397
vn 0.14812115 0.4391635 0.88611263
vn 0.20100665 0.04743459 0.9784407
vn 0.7898502 -0.5124306 0.33697417
vn 0.44039562 -0.87333864 0.20816167
vn 0.9062081 -0.41413224 0.085331365
vn 0.7112365 -0.7029455 -0.0032285887
vn 0.9062081 -0.41413224 0.085331365
vn 0.44039562 -0.87333864 0.20816167
vn 0.24664198 -0.93304384 0.26191008
vn -0.069806695 -0.916717 0.3933915
vn 0.11476255 -0.9602306 0.25453243
vn 0.23379794 -0.73296076 0.6388325
vn -0.069806695 -0.916717 0.3933915
vn 0.24664198 -0.93304384 0.26191008
vn 0.20543373 0.5001066 0.8412434
vn 0.16246878 0.12779936 0.9784024
vn 0.026785351 0.30761456 0.95113397
vn 0.20100665 0.04743459 0.9784407
vn 0.14812115 0.4391635 0.88611263
vn -0.111389 0.16256443 0.98039037
vn -0.09071468 -0.26188904 0.96082515
vn 0.41606688 0.87127084 0.2603374
vn 0.012699448 0.9865332 0.16306658
vn 0.3554082 0.90719247 0.2251374
vn 0.67899615 0.66483724 0.3113769
vn 0.88144594 0.054692015 -0.4691074
vn 0.7632068 0.21485229 -0.60938823
vn 0.8728091 0.142603 -0.46676397
vn 0.94770753 0.29449016 -0.12298815
vn 0.88144594 0.054692015 -0.4691074
vn 0.8728091 0.142603 -0.46676397
vn -0.1667431 -0.2828654 0.94455487
vn -0.6441872 -0.6155541 0.45400003
vn -0.5968633 -0.31836107 0.7364783
vn -0.14607088 -0.47739962 0.86645985
vn 0.7898502 -0.5124306 0.33697417
vn 0.9062081 -0.41413224 0.085331365
vn 0.9187976 0.2076247 0.33571276
vn 0.10320983 -0.50282025 0.85820717
vn -0.20039153 -0.7497055 0.6307019
vn -0.069806695 -0.916717 0.3933915
vn 0.23379794 -0.73296076 0.6388325
vn 0.9735809 0.11325007 0.19827941
vn 0.9062081 -0.41413224 0.085331365
vn 0.9302678 -0.31583893 -0.18667498
vn 0.9302678 -0.31583893 -0.18667498
vn 0.9062081 -0.41413224 0.085331365
vn 0.82077926 -0.56053567 -0.11009619
vn 0.60791534 0.24250212 0.75606334
vn 0.23379794 -0.73296076 0.6388325
vn 0.5187756 -0.6564262 0.5477012
vn 0.6842823 0.7290852 -0.0138757
vn 0.2314287 0.96685886 0.107818075
vn 0.41606688 0.87127084 0.2603374
vn 0.2314287 0.96685886 0.107818075
vn 0.012699448 0.9865332 0.16306658
vn 0.41606688 0.87127084 0.2603374
vn 0.43542936 0.70573384 0.55887485
vn 0.01715934 0.6831093 0.7301146
vn 0.17215024 0.3617144 0.916257
vn 0.13415605 0.9235812 0.35916558
vn -0.15085563 0.9492631 0.27593866
vn 0.01715934 0.6831093 0.7301146
vn 0.7112365 -0.7029455 -0.0032285887
vn 0.44039562 -0.87333864 0.20816167
vn 0.69048923 -0.6488147 0.31978762
vn -0.09071468 -0.26188904 0.96082515
vn -0.45985758 -0.3899945 0.79776895
vn -0.20039153 -0.7497055 0.6307019
vn 0.10320983 -0.50282025 0.85820717
vn 0.77308035 0.13461041 0.6198603
vn 0.9679924 -0.06633173 0.24205533
vn 0.887477 -0.10090423 0.44966972
vn 0.9402379 -0.13955367 0.3106082
vn 0.7373891 0.17067684 -0.6535492
vn 0.88144594 0.054692015 -0.4691074
vn 0.91884285 -0.015106907 -0.39433426
vn 0.8615039 -0.2705798 -0.42964825
vn 0.91884285 -0.015106907 -0.39433426
vn 0.88144594 0.054692015 -0.4691074
vn -0.41689396 -0.049530428 -0.9076046
vn -0.23668674 0.2838313 -0.9292035
vn -0.751083 0.4567454 -0.47671565
vn 0.7830703 0.51139176 0.35394806
vn 0.9187976 0.2076247 0.33571276
vn 0.87802166 0.39665392 0.26784998
vn 0.82077926 -0.56053567 -0.11009619
vn 0.91133684 -0.41102755 0.022835225
vn 0.90199924 -0.2878441 -0.3217813
vn -0.43953007 0.8714762 -0.21758343
vn -0.36466697 0.82194686 -0.43751732
vn -0.33041072 0.85820806 -0.39282012
vn -0.8138162 -0.25755608 0.5209299
vn -0.6441872 -0.6155541 0.45400003
vn -0.45985758 -0.3899945 0.79776895
vn 0.77308035 0.13461041 0.6198603
vn 0.7608305 0.43285954 0.48349723
vn 0.8446857 0.2886512 0.45076218
vn 0.6479578 0.22729562 0.72697145
vn 0.9679924 -0.06633173 0.24205533
vn 0.77308035 0.13461041 0.6198603
vn 0.6479578 0.22729562 0.72697145
vn 0.9458627 -0.29997587 -0.123928115
vn 0.887477 -0.10090423 0.44966972
vn 0.9679924 -0.06633173 0.24205533
vn 0.9458627 -0.29997587 -0.123928115
vn 0.74172205 -0.285761 -0.6067859
vn 0.7507662 -0.119619094 -0.64964706
vn 0.9957754 -0.076288916 -0.05110196
vn 0.8446857 0.2886512 0.45076218
vn 0.46169448 -0.034556244 0.88636565
vn 0.6479578 0.22729562 0.72697145
vn 0.8446857 0.2886512 0.45076218
vn 0.9670974 -0.24788082 0.057251945
vn 0.46169448 -0.034556244 0.88636565
vn 0.975681 -0.042895604 0.21495701
vn 0.6479578 0.22729562 0.72697145
vn 0.788278 -0.6150233 -0.01907814
vn 0.975681 -0.042895604 0.21495701
vn 0.9458627 -0.29997587 -0.123928115
vn 0.9679924 -0.06633173 0.24205533
vn 0.788278 -0.6150233 -0.01907814
vn 0.6793746 -0.7102844 -0.18424498
vn 0.975681 -0.042895604 0.21495701
vn 0.43209466 0.25769123 0.8642276
vn 0.04886554 0.615602 0.78654075
vn -0.025461508 0.57387376 0.8185479
vn 0.3843295 0.16340296 0.90861994
vn 0.66235226 -0.22880688 0.7133982
vn 0.43209466 0.25769123 0.8642276
vn 0.3843295 0.16340296 0.90861994
vn 0.626104 -0.22120161 0.74770564
vn 0.71217185 -0.2388491 0.6601231
vn 0.56104577 0.2011335 0.80297744
vn 0.43209466 0.25769123 0.8642276
vn 0.66235226 -0.22880688 0.7133982
vn 0.56104577 0.2011335 0.80297744
vn 0.18503973 0.679196 0.71024853
vn 0.04886554 0.615602 0.78654075
vn 0.43209466 0.25769123 0.8642276
vn 0.75602466 0.23770757 0.609854
vn 0.79222614 0.25768968 0.55314887
vn 0.70814294 0.6544101 0.26510602
vn 0.6939995 0.67228323 0.25768158
vn 0.61367434 -0.2796056 0.7383931
vn 0.684349 -0.19369602 0.7029569
vn 0.79222614 0.25768968 0.55314887
vn 0.75602466 0.23770757 0.609854
vn 0.4958857 -0.39776596 0.77193236
vn 0.61367434 -0.2796056 0.7383931
vn 0.75602466 0.23770757 0.609854
vn 0.63165724 -0.008138446 0.775205
vn 0.75602466 0.23770757 0.609854
vn 0.6939995 0.67228323 0.25768158
vn 0.6856133 0.49436358 0.5343586
vn 0.63165724 -0.008138446 0.775205
vn 0.75602466 0.23770757 0.609854
vn 0.6856133 0.49436358 0.5343586
# 1524 vertex normals

vt 0.5588193 0.38680658 0
vt 0.2999264 0.85567725 0
vt 0.9607477 0.8664994 0
vt 0.45007014 0.854336 0
vt 0.55411863 0.1010299 0
vt 0.86244076 0.78352505 0
vt 0.5662201 0.5013479 0
vt 0.26021764 0.6966255 0
vt 0.32645348 0.65340865 0
vt 0.6972943 0.10408759 0
vt 0.73966646 0.54973507 0
vt 0.11718274 0.575332 0
vt 0.742134 0.78310317 0
vt 0.05847139 0.7344023 0
vt 0.21152763 0.882576 0
vt 0.87062895 0.59291 0
vt 0.89285 0.616149 0
vt 0.11885428 0.5789073 0
vt 0.38561752 0.22064264 0
vt 0.12483675 0.62941307 0
vt 0.37957707 0.8512701 0
vt 0.06000694 0.56022465 0
vt 0.9226368 0.78062373 0
vt 0.75895154 0.68727046 0
vt 0.28160524 0.7800827 0
vt 0.5771818 0.15279292 0
vt 0.18236719 0.6836914 0
vt 0.75815606 0.7851862 0
vt 0.104606844 0.37001824 0
vt 0.6770482 0.678476 0
vt 0.52710617 0.48869452 0
vt 0.90326744 0.48261037 0
vt 0.4803099 0.49054068 0
vt 0.8450415 0.7183 0
vt 0.9000391 0.6056165 0
vt 0.49029696 0.5232325 0
vt 0.801297 0.77323955 0
vt 0.76758885 0.60320246 0
vt 0.34313324 0.08824691 0
vt 0.29199725 0.42785296 0
vt 0.4926775 0.4819901 0
vt 0.85069245 0.27438882 0
vt 0.41333762 0.7733778 0
vt 0.34383053 0.54340976 0
vt 0.13946466 0.6967188 0
vt 0.62904036 0.25725976 0
vt 0.10210255 0.6336528 0
vt 0.24270296 0.8773651 0
vt 0.5470008 0.41658005 0
vt 0.34122646 0.5649921 0
vt 0.46932867 0.5297536 0
vt 0.679608 0.11211864 0
vt 0.37288436 0.5581453 0
vt 0.64309937 0.6061907 0
vt 0.840584 0.43897367 0
vt 0.74121386 0.38124895 0
vt 0.79102635 0.5285001 0
vt 0.81727797 0.3874086 0
vt 0.5097354 0.42800713 0
vt 0.12574983 -0.048388332 0
vt 0.14323927 0.49923846 0
vt 0.4623131 0.6590739 0
vt 0.46562666 0.8359535 0
vt 0.3250609 0.408683 0
vt 0.06431866 0.4188676 0
vt 0.63774353 0.07525019 0
vt 0.081519306 0.39623827 0
vt 0.07312812 0.4318543 0
vt 0.7311111 0.36803713 0
vt 0.09476398 0.46310607 0
vt 0.72392195 0.22966306 0
vt 0.16351707 0.741559 0
vt 0.26514685 0.6472077 0
vt 0.55623716 0.4199206 0
vt 0.5881833 0.41358274 0
vt 0.45065603 0.8868611 0
vt 0.18545981 0.6456469 0
vt 0.84977776 0.2740497 0
vt 0.6415694 0.76441777 0
vt 0.66833085 0.22260904 0
vt 0.40051228 0.80916834 0
vt 0.39854366 0.82724667 0
vt 0.10658579 0.5196093 0
vt 0.2710347 0.7614038 0
vt 0.15937915 0.828144 0
vt 0.8842899 0.7235981 0
vt 0.1189446 0.82095146 0
vt 0.9102784 0.7862402 0
vt 0.5194774 0.5228447 0
vt 0.5306163 0.29290828 0
vt 0.10187069 0.63688385 0
vt 0.3442548 0.5446945 0
vt 0.43904832 0.6216273 0
vt 0.18325974 0.5108907 0
vt 0.5125184 0.34696913 0
vt 0.490403 0.8597354 0
vt 0.5876212 0.7558856 0
vt 0.8560817 0.60386544 0
vt 0.8508755 0.73647267 0
vt 0.72678983 0.18214491 0
vt 0.8140368 0.6460749 0
vt 0.521417 0.42507288 0
vt 0.88467914 0.48261756 0
vt 0.72435176 0.21319994 0
vt 0.21772821 0.5669472 0
vt 0.30521843 0.44302088 0
vt 0.80899537 0.39987314 0
vt 0.90227866 0.65437347 0
vt 0.3214884 0.6538956 0
vt 0.8016941 0.20276569 0
vt 0.8878568 0.4431425 0
vt 0.84606 0.7012719 0
vt 0.8811964 0.5335208 0
vt 0.60097307 0.7531425 0
vt 0.5408101 0.8070525 0
vt 0.39144593 0.52897143 0
vt 0.38653493 0.44377714 0
vt 0.62505424 0.2669362 0
vt 0.73210675 0.26845974 0
vt 0.72167736 0.16995302 0
vt 0.4006732 0.723596 0
vt 0.40659234 0.6823575 0
vt 0.6229838 0.37636736 0
vt 0.04130708 0.5166377 0
vt 0.6704821 0.7271168 0
vt 0.8062035 0.32088184 0
vt 0.46438992 0.6972751 0
vt 0.5584305 0.62583536 0
vt 0.8837911 0.7474388 0
vt 0.5104344 0.74362683 0
vt 0.072246455 0.49913993 0
vt 0.62020594 0.6263327 0
vt 0.2647125 0.45628914 0
vt 0.8330275 0.7826421 0
vt 0.80089676 0.20281489 0
vt 0.74423623 0.25093016 0
vt 0.56901187 0.34669876 0
vt 0.8595528 0.3020272 0
vt 0.1426886 0.8226516 0
vt 0.70951617 0.37813416 0
vt 0.3508304 0.23172358 0
vt 0.19309232 0.32827574 0
vt 0.3472525 0.7647705 0
vt 0.89951515 0.6676619 0
vt 0.6151057 0.31551215 0
vt 0.6451392 0.420912 0
vt 0.1914834 0.60602754 0
vt 0.21939896 0.64301264 0
vt 0.49006134 0.59566456 0
vt 0.022946864 0.53974634 0
vt 0.69973636 0.70415413 0
vt 0.72081953 0.16914162 0
vt 0.6054038 0.58645606 0
vt 0.40891552 0.601874 0
vt 0.73808575 0.3780409 0
vt 0.31745595 0.22994289 0
vt 0.31406322 0.66739833 0
vt 0.0881799 0.58401394 0
vt 0.9109572 0.6163387 0
vt 0.51794946 0.46317637 0
vt 0.59652567 0.40146402 0
vt 0.60112363 0.10418348 0
vt 0.39133278 0.62632674 0
vt 0.87462646 0.3770459 0
vt 0.5700468 0.4214684 0
vt 0.4271949 0.520128 0
vt 0.7740348 0.66480803 0
vt 0.455075 0.7665421 0
vt 0.6500964 0.7567884 0
vt 0.45896873 0.4987752 0
vt 0.84535307 0.37387392 0
vt 0.506589 0.321981 0
vt 0.14386028 0.38996604 0
vt 0.7651507 0.22258337 0
vt 0.75969553 0.5321051 0
vt 0.3183634 0.71693534 0
vt 0.05730874 0.6990012 0
vt 0.6192352 0.359166 0
vt 0.6315122 0.7412624 0
vt 0.5050579 0.49634084 0
vt 0.82277906 0.25950542 0
vt 0.8955783 0.5104326 0
vt 0.4755958 0.79661816 0
vt 0.8832039 0.55771166 0
vt 0.69539654 0.37414888 0
vt 0.47144043 0.53449357 0
vt 0.20882334 0.4861836 0
vt 0.8752781 0.80761707 0
vt 0.68270874 0.7792042 0
vt 0.55343485 0.74878156 0
vt 0.44082406 0.67618656 0
vt 0.074348345 0.245679 0
vt 0.17840214 0.5111634 0
vt 0.48480853 0.555732 0
vt 0.12394373 0.8071018 0
vt 0.21382721 0.8085965 0
vt 0.78747547 0.5942084 0
vt 0.029223014 0.67412484 0
vt 0.9029683 0.5858994 0
vt 0.43777955 0.17787288 0
vt 0.3181939 0.7005752 0
vt 0.908857 0.5406823 0
vt 0.6278412 0.394525 0
vt 0.6927404 0.69094443 0
vt 0.60124636 0.65691483 0
vt 0.5155018 0.63699883 0
vt 0.11952531 0.66879725 0
vt 0.90483123 0.5432653 0
vt 0.47886813 0.63653934 0
vt 0.8749943 0.37857845 0
vt 0.16503756 0.8555075 0
vt 0.27477697 0.78185004 0
vt 0.58857524 0.08146707 0
vt 0.62286067 0.77724504 0
vt 0.8525 0.43553138 0
vt 0.57313657 0.5466573 0
vt 0.026119892 0.6151766 0
vt 0.7445496 0.20683506 0
vt 0.7188149 0.63354313 0
vt 0.50256956 0.44164452 0
vt 0.29109457 0.6744065 0
vt 0.3176783 0.27265948 0
vt 0.9111778 0.7663158 0
vt 0.35443017 0.8439117 0
vt 0.26865152 0.41613737 0
vt 0.90065956 0.63997024 0
vt 0.25834242 0.9004914 0
vt 0.84023017 0.43854198 0
vt 0.4257155 0.84801966 0
vt 0.091790035 0.7434875 0
vt 0.13119227 0.67751 0
vt 0.35807198 0.3060953 0
vt 0.73530257 0.64076984 0
vt 0.6694497 0.60656655 0
vt 0.7108365 0.5186502 0
vt 0.74136555 0.3805796 0
vt 0.4438666 0.81943744 0
vt 0.1967439 0.35638273 0
vt 0.31747323 0.70172876 0
vt 0.7285274 0.77182454 0
vt 0.27381334 0.60701174 0
vt 0.4799017 0.56283313 0
vt 0.07872686 0.77794194 0
vt 0.77531916 0.18698771 0
vt 0.8708881 0.67857057 0
vt 0.13092858 0.40477836 0
vt 0.1734804 0.42002258 0
vt 0.30422366 0.8886567 0
vt 0.4420454 0.39210835 0
vt 0.59011537 0.73215765 0
vt 0.22626463 0.27708796 0
vt 0.07065751 0.4999717 0
vt 0.81378716 0.2948753 0
vt 0.2868869 0.3831863 0
vt 0.9114422 0.5041835 0
vt 0.5810454 0.45406127 0
vt 0.2583608 0.33984983 0
vt 0.76462364 0.27316904 0
vt 0.29212856 0.34671915 0
vt 0.53463274 0.1843338 0
vt 0.8720401 0.49165326 0
vt 0.42891663 0.7105557 0
vt 0.8806503 0.374462 0
vt 0.73934805 0.4408912 0
vt 0.4849955 0.6395552 0
vt 0.31668904 0.91274107 0
vt 0.685098 0.5214677 0
vt 0.7349214 0.34916094 0
vt 0.77834356 0.7608995 0
vt 0.1772097 0.44360903 0
vt 0.14310673 0.59101474 0
vt 0.06907217 0.22235765 0
vt 0.4697637 0.71048754 0
vt 0.7807921 0.73423684 0
vt 0.45858192 0.68367666 0
vt 0.319728 0.61646813 0
vt 0.3880147 0.44412014 0
vt 0.51342934 0.1035714 0
vt 0.51880634 0.7802137 0
vt 0.36298752 0.63995576 0
vt 0.88811547 0.804014 0
vt 0.41585106 0.74627894 0
vt 0.86310124 0.6665365 0
vt 0.4052115 0.9009429 0
vt 0.35446024 0.5035018 0
vt 0.78134555 0.3830329 0
vt 0.4733721 0.50856316 0
vt 0.48819903 0.4142621 0
vt 0.660724 0.18714139 0
vt 0.29215863 0.5358958 0
vt 0.38677844 0.5067332 0
vt 0.6772883 0.6268524 0
vt 0.25881305 0.40740067 0
vt 0.36222836 0.8997042 0
vt 0.37115633 0.34049934 0
vt 0.7355662 0.6375997 0
vt 0.023129016 0.60907185 0
vt 0.48057562 0.872813 0
vt 0.31686944 0.436278 0
vt 0.48750213 0.5024848 0
vt 0.81940037 0.2330695 0
vt 0.124856725 0.73053974 0
vt 0.54250467 0.74438566 0
vt 0.7450747 0.36389968 0
vt 0.5384496 0.66714436 0
vt 0.34472767 0.16321598 0
vt 0.78728527 0.44848204 0
vt 0.64289284 0.36343786 0
vt 0.8518182 0.7706849 0
vt 0.48539674 0.70987344 0
vt 0.5156643 0.6386156 0
vt 0.90641737 0.609581 0
vt 0.90896684 0.57305294 0
vt 0.77600765 0.1861773 0
vt 0.6947904 0.4405238 0
vt 0.5349841 0.7737435 0
vt 0.6382918 0.15107682 0
vt 0.36168805 0.24188414 0
vt 0.488425 0.72342265 0
vt 0.68276 0.736499 0
vt 0.6892738 0.15005636 0
vt 0.8449579 0.37331402 0
vt 0.13834861 0.022492208 0
vt 0.5812072 0.78655297 0
vt 0.28830224 0.6643983 0
vt 0.46370253 0.6904469 0
vt 0.556631 0.42069277 0
vt 0.49296707 0.17676428 0
vt 0.04660262 0.6571419 0
vt 0.3397158 0.774512 0
vt 0.40727475 0.16257696 0
vt 0.63459146 0.4786926 0
vt 0.4647103 0.30524215 0
vt 0.32922125 0.7837289 0
vt 0.805326 0.7431876 0
vt 0.819055 0.23281954 0
vt 0.18822497 0.31810158 0
vt 0.19026841 0.74803036 0
vt 0.8370043 0.4088356 0
vt 0.6404339 0.38700992 0
vt 0.14578728 0.32709748 0
vt 0.4917946 0.6029022 0
vt 0.18020824 0.37380368 0
vt 0.5186836 0.51480085 0
vt 0.32826424 0.8923944 0
vt 0.9111068 0.5634973 0
vt 0.5754674 0.6089403 0
vt 0.33509925 0.3432963 0
vt 0.21696752 0.84211797 0
vt 0.8666248 0.45529318 0
vt 0.80495685 0.24377719 0
vt 0.17392346 0.45768392 0
vt 0.67253554 0.3647953 0
vt 0.56991 0.35018024 0
vt 0.3479669 0.8657083 0
vt 0.035378866 0.51854634 0
vt 0.4629547 0.5865957 0
vt 0.8070512 0.6451921 0
vt 0.91540885 0.53438485 0
vt 0.44624788 0.75995994 0
vt 0.7446593 0.37214223 0
vt 0.8972824 0.72557145 0
vt 0.66427803 0.766158 0
# 363 texture coords

usemtl dingus
s 1
f 180/343/1 3/67/2 50/251/3
f 100/266/4 158/345/5 171/48/6
f 14/285/7 107/288/8 97/293/9
f 146/307/10 216/261/11 247/113/12
f 45/96/13 163/324/14 169/63/15
f 4/29/16 62/65/17 1/68/18
f 6/243/19 9/230/20 10/139/21
f 13/92/22 14/285/23 11/290/24
f 45/96/25 17/284/26 47/298/27
f 257/319/28 130/273/29 25/275/30
f 26/51/31 27/149/32 205/209/33
f 176/263/34 289/126/35 287/42/36
f 264/335/37 35/309/38 285/34/39
f 160/233/40 37/151/41 36/167/42
f 39/40/43 43/257/44 42/133/45
f 109/55/46 43/210/47 40/322/48
f 45/96/49 47/298/50 44/320/51
f 48/214/52 47/298/53 16/76/54
f 49/19/55 52/156/56 54/331/57
f 57/53/58 60/325/59 198/291/60
f 55/122/61 58/163/62 59/93/63
f 61/297/64 173/356/65 186/217/66
f 172/124/67 173/356/68 61/297/69
f 176/46/70 177/137/71 76/178/72
f 87/106/73 86/254/74 83/117/75
f 84/352/76 86/254/77 87/106/78
f 212/256/79 284/161/80 96/353/81
f 10/139/82 167/87/83 6/243/84
f 133/143/85 8/196/86 56/176/87
f 20/118/88 51/308/89 136/361/90
f 51/308/91 53/146/92 136/361/93
f 107/288/94 109/1/95 108/295/96
f 99/294/97 124/248/98 132/82/99 104/4/100
f 9/230/101 6/243/102 168/177/103
f 291/174/104 102/314/105 101/135/106
f 7/45/107 198/291/108 60/325/109
f 5/341/110 50/251/111 3/67/112
f 105/303/113 135/237/114 129/130/115
f 39/40/116 42/133/117 88/50/118
f 150/170/119 80/31/120 196/344/121
f 252/36/122 217/41/123 197/287/124
f 87/106/125 83/117/126 198/291/127
f 90/121/128 199/43/129 153/276/130
f 83/117/131 81/249/132 150/170/133
f 183/77/134 63/73/135 112/147/136
f 212/256/137 95/315/138 282/332/139
f 138/80/140 77/145/141 18/317/142
f 224/134/143 263/13/144 261/37/145
f 278/359/146 215/32/147 221/255/148
f 132/82/149 135/237/150 104/4/151
f 98/193/152 114/271/153 112/147/154
f 110/268/155 290/119/156 289/126/157
f 108/295/158 97/293/159 107/288/160
f 129/130/161 131/169/162 105/303/163
f 138/80/164 290/119/165 110/268/166
f 134/262/167 129/130/168 135/237/169
f 53/141/170 108/295/171 109/1/172
f 138/80/173 110/268/174 77/145/175
f 143/329/176 115/302/177 144/207/178
f 254/179/179 213/240/180 145/189/181
f 147/140/182 229/304/183 228/286/184
f 130/273/185 129/130/186 134/262/187
f 136/361/188 126/136/189 20/118/190
f 6/243/191 202/14/192 187/198/193
f 44/320/194 153/30/195 163/324/196
f 240/245/197 194/98/198 159/358/199
f 192/158/200 168/177/201 186/217/202
f 239/54/203 235/267/204 274/235/205
f 169/63/206 199/224/207 188/25/208
f 153/30/209 149/292/210 195/132/211
f 154/349/212 193/2/213 191/338/214
f 148/355/215 158/345/216 17/284/217
f 159/358/218 160/233/219 36/167/220
f 163/324/221 45/96/222 44/320/223
f 225/101/224 165/283/225 286/112/226
f 238/219/227 230/24/228 226/204/229
f 157/91/230 168/177/231 192/158/232
f 150/170/233 162/166/234 198/291/235
f 77/145/236 110/268/237 140/123/238
f 178/154/239 181/9/240 92/280/241
f 174/252/242 180/343/243 84/352/244
f 175/109/245 69/72/246 65/231/247
f 184/20/248 114/271/249 141/18/250
f 94/81/251 218/168/252 242/360/253
f 231/190/254 130/273/255 257/319/256
f 244/305/257 185/310/258 269/127/259
f 150/170/260 198/291/261 83/117/262
f 186/217/263 187/198/264 61/297/265
f 115/302/266 156/195/267 155/85/268
f 194/234/269 195/132/270 149/292/271
f 68/330/272 193/2/273 148/21/274
f 151/186/275 197/287/276 248/33/277
f 25/275/278 258/326/279 257/319/280
f 93/23/281 260/99/282 164/86/283
f 270/223/284 220/88/285 206/3/286
f 214/362/287 116/129/288 220/88/289
f 130/273/290 231/190/291 129/130/292
f 266/265/293 267/311/294 269/127/295
f 267/311/296 244/305/297 269/127/298
f 204/114/299 185/310/300 244/305/301
f 204/114/302 268/316/303 185/310/304
f 267/311/305 246/128/306 244/305/307
f 205/209/308 258/326/309 25/275/310
f 224/134/311 265/188/312 203/281/313
f 35/309/314 224/134/315 203/281/316
f 270/223/317 214/362/318 220/88/319
f 93/23/320 270/223/321 206/3/322
f 164/86/323 214/362/324 270/223/325
f 116/129/326 203/281/327 220/88/328
f 116/129/329 214/362/330 240/245/331
f 285/34/332 116/129/333 240/245/334
f 224/134/335 261/37/336 259/6/337
f 259/6/338 261/37/339 260/99/340
f 260/99/341 93/23/342 259/6/343
f 231/190/344 257/319/345 268/316/346
f 258/326/347 218/168/348 257/319/349
f 251/159/350 272/108/351 275/144/352
f 256/175/353 201/57/354 237/38/355
f 236/11/356 256/175/357 237/38/358
f 274/235/359 95/315/360 255/264/361
f 190/199/362 117/202/363 278/359/364
f 249/312/365 208/313/366 72/346/367
f 239/54/368 241/205/369 245/347/370
f 242/360/371 269/127/372 185/310/373
f 242/360/374 258/326/375 269/127/376
f 242/360/377 218/168/378 258/326/379
f 233/226/380 286/112/381 276/17/382
f 238/219/383 239/54/384 236/11/385
f 225/101/386 286/112/387 283/274/388
f 260/99/389 275/144/390 164/86/391
f 260/99/392 286/112/393 275/144/394
f 237/38/395 225/101/396 238/219/397
f 241/205/398 244/305/399 246/128/400
f 276/17/401 165/283/402 225/101/403
f 236/11/404 255/264/405 256/175/406
f 228/286/407 146/307/408 255/264/409
f 254/179/410 145/189/411 204/114/412
f 247/113/413 117/202/414 190/199/415
f 262/28/416 263/13/417 145/189/418
f 277/79/419 263/13/420 131/169/421
f 261/37/422 286/112/423 260/99/424
f 261/37/425 263/13/426 262/28/427
f 75/103/428 279/208/429 222/182/430
f 224/134/431 259/6/432 265/188/433
f 206/3/434 203/281/435 265/188/436
f 207/183/437 218/168/438 94/81/439
f 207/183/440 268/316/441 218/168/442
f 268/316/443 257/319/444 218/168/445
f 96/353/446 281/185/447 227/69/448
f 248/33/449 209/220/450 250/180/451
f 278/359/452 208/313/453 190/199/454
f 232/215/455 216/261/456 146/307/457
f 216/261/458 215/32/459 117/202/460
f 232/215/461 118/107/462 223/350/463
f 95/315/464 96/353/465 255/264/466
f 204/114/467 244/305/468 254/179/469
f 262/28/470 213/240/471 261/37/472
f 226/204/473 241/205/474 238/219/475
f 212/256/476 96/353/477 95/315/478
f 284/161/479 212/256/480 209/160/481
f 222/182/482 279/208/483 221/255/484
f 266/265/485 27/149/486 243/342/487
f 268/316/488 242/360/489 185/310/490
f 268/316/491 207/183/492 242/360/493
f 207/183/494 94/81/495 242/360/496
f 265/188/497 259/6/498 206/3/499
f 220/88/500 203/281/501 206/3/502
f 93/23/503 206/3/504 259/6/505
f 34/269/506 131/169/507 224/134/508
f 204/114/509 231/190/510 268/316/511
f 293/104/512 294/71/513 138/80/514
f 294/71/515 290/119/516 138/80/517
f 292/258/518 290/119/519 294/71/520
f 296/100/521 128/152/522 297/218/523
f 291/174/524 298/351/525 288/253/526
f 20/5/527 127/10/528 24/66/529
f 298/351/530 295/301/531 287/42/532
f 11/290/533 98/193/534 112/147/535 63/73/536
f 145/189/537 263/13/538 277/79/539
f 82/232/540 49/19/541 19/328/542 78/333/543
f 89/241/544 38/187/545 12/12/546 65/231/547
f 33/125/548 48/214/549 103/97/550
f 1/68/551 119/70/552 121/246/553 4/29/554
f 219/339/555 75/103/556 222/182/557
f 136/361/558 40/171/559 29/181/560 126/136/561
f 28/64/562 39/40/563 88/50/564 70/116/565
f 16/76/566 99/294/567 104/4/568
f 7/45/569 157/91/570 170/105/571 198/291/572
f 4/29/573 5/341/574 3/67/575 62/65/576
f 2/337/577 5/341/578 4/29/579
f 9/230/580 7/45/581 8/196/582 10/139/583
f 14/285/584 13/44/585 12/12/586 15/83/587
f 22/213/588 24/66/589 18/317/590 21/26/591
f 16/76/592 47/298/593 17/284/594
f 22/213/595 21/26/596 19/328/597 23/278/598
f 22/213/599 23/278/600 20/5/601 24/66/602
f 31/318/603 32/222/604 28/64/605 30/348/606
f 31/78/607 295/336/608 29/181/609 32/138/610
f 36/167/611 37/151/612 264/335/613 285/34/614
f 109/142/615 107/173/616 41/247/617 43/257/618
f 43/257/619 41/247/620 38/187/621 42/133/622
f 52/156/623 50/251/624 2/337/625 53/141/626
f 46/363/627 47/298/628 48/214/629
f 44/320/630 47/298/631 46/363/632
f 53/141/633 51/200/634 54/331/635 52/156/636
f 58/163/637 57/53/638 162/166/639 59/93/640
f 57/53/641 58/163/642 60/325/643
f 55/122/644 56/176/645 60/325/646 58/163/647
f 175/109/648 63/73/649 66/8/650 67/201/651
f 186/217/652 173/356/653 174/252/654
f 67/201/655 66/8/656 64/84/657 68/330/658
f 68/330/659 188/25/660 69/72/661 67/239/662
f 178/154/663 71/206/664 74/153/665 177/89/666
f 175/109/667 67/239/668 69/72/669
f 177/354/670 74/49/671 72/165/672 75/75/673
f 79/327/674 140/123/675 253/203/676 280/102/677
f 76/178/678 177/137/679 75/75/680
f 140/123/681 79/327/682 77/145/683
f 80/31/684 79/327/685 280/102/686 217/41/687
f 79/327/688 80/31/689 150/170/690 81/249/691
f 81/249/692 179/172/693 77/145/694 79/327/695
f 84/352/696 180/343/697 85/259/698 86/254/699
f 181/9/700 90/121/701 91/191/702 92/280/703
f 90/121/704 181/9/705 182/157/706
f 4/29/707 121/246/708 137/238/709 2/337/710
f 266/265/711 205/209/712 27/149/713
f 119/70/714 1/68/715 172/124/716 142/22/717
f 18/317/718 24/66/719 127/10/720 138/80/721
f 100/266/722 123/15/723 125/227/724
f 100/266/725 125/227/726 99/294/727
f 101/110/728 102/244/729 126/136/730
f 134/262/731 133/143/732 56/176/733 55/122/734
f 135/237/735 105/303/736 103/97/737 106/115/738
f 139/236/739 110/268/740 111/58/741 219/339/742
f 104/4/743 135/237/744 106/115/745
f 289/126/746 111/58/747 110/268/748
f 144/207/749 115/302/750 191/338/751 113/27/752
f 113/27/753 183/77/754 184/20/755 144/207/756
f 168/177/757 157/91/758 7/45/759 9/230/760
f 254/179/761 244/305/762 241/205/763
f 120/61/764 98/193/765 122/270/766
f 17/284/767 100/266/768 99/294/769 16/76/770
f 13/44/771 175/109/772 65/231/773 12/12/774
f 100/266/775 17/284/776 158/345/777
f 11/290/778 63/73/779 175/109/780 13/92/781
f 15/83/782 41/247/783 107/173/784 14/131/785
f 38/187/786 41/247/787 15/83/788 12/12/789
f 37/151/790 46/363/791 48/214/792 33/125/793
f 160/233/794 44/320/795 46/363/796 37/151/797
f 295/52/798 31/162/799 30/260/800 287/321/801
f 70/116/802 73/277/803 30/348/804 28/64/805
f 101/110/806 126/136/807 29/181/808 295/336/809
f 55/122/810 25/275/811 130/273/812 134/262/813
f 21/26/814 179/172/815 78/333/816 19/328/817
f 77/145/818 179/172/819 21/26/820 18/317/821
f 23/278/822 54/331/823 51/200/824 20/5/825
f 19/328/826 49/19/827 54/331/828 23/278/829
f 7/45/830 60/325/831 56/176/832 8/196/833
f 32/138/834 29/181/835 40/171/836 43/164/837
f 39/40/838 28/64/839 32/222/840 43/257/841
f 25/275/842 55/122/843 59/93/844 205/209/845
f 2/337/846 50/251/847 5/341/848
f 26/51/849 205/209/850 59/93/851 162/166/852
f 52/156/853 85/259/854 180/343/855 50/251/856
f 53/141/857 2/337/858 137/238/859
f 49/19/860 82/232/861 85/259/862 52/156/863
f 72/346/864 74/184/865 194/98/866 189/35/867
f 42/133/868 38/187/869 89/241/870
f 62/65/871 172/124/872 1/68/873
f 68/330/874 64/84/875 193/2/876
f 71/206/877 195/132/878 194/234/879 74/153/880
f 182/157/881 69/72/882 188/25/883 90/121/884
f 152/94/885 84/352/886 87/106/887
f 153/276/888 91/191/889 90/121/890
f 65/231/891 69/72/892 182/157/893 89/241/894
f 78/333/895 179/172/896 85/259/897 82/232/898
f 83/117/899 86/254/900 81/249/901
f 92/280/902 91/191/903 71/206/904 178/154/905
f 174/252/906 3/67/907 180/343/908
f 253/203/909 147/140/910 211/340/911
f 70/116/912 88/50/913 181/9/914 178/154/915
f 66/8/916 113/27/917 191/338/918 64/84/919
f 248/33/920 217/41/921 280/102/922 210/74/923
f 11/290/924 14/285/925 122/270/926 98/193/927
f 97/293/928 122/270/929 14/285/930
f 48/214/931 16/76/932 104/4/933 106/115/934
f 124/248/935 99/294/936 125/227/937
f 126/136/938 102/244/939 128/120/940
f 34/269/941 33/125/942 131/169/943
f 219/339/944 111/58/945 76/111/946 75/103/947
f 106/115/948 103/97/949 48/214/950
f 40/171/951 136/361/952 109/228/953
f 223/350/954 222/182/955 221/255/956 215/32/957
f 102/314/958 291/174/959 297/218/960 128/152/961
f 247/113/962 216/261/963 117/202/964
f 33/125/965 103/97/966 105/303/967 131/169/968
f 296/100/969 293/104/970 138/80/971 127/10/972 128/152/973
f 141/18/974 114/271/975 98/193/976 120/61/977
f 97/293/978 137/238/979 121/246/980 122/270/981
f 122/270/982 121/246/983 119/70/984 120/61/985
f 123/15/986 167/87/987 10/139/988 125/227/989
f 125/227/990 10/139/991 8/196/992 124/248/993
f 128/120/994 127/289/995 20/118/996 126/136/997
f 129/130/998 231/190/999 277/79/1000 131/169/1001
f 135/237/1002 132/82/1003 133/143/1004 134/262/1005
f 110/268/1006 139/236/1007 253/203/1008 140/123/1009
f 136/361/1010 53/146/1011 109/228/1012
f 53/141/1013 137/238/1014 108/295/1015
f 144/207/1016 184/20/1017 142/22/1018 143/329/1019
f 120/61/1020 119/70/1021 142/22/1022 141/18/1023
f 226/204/1024 230/24/1025 213/240/1026
f 253/203/1027 139/155/1028 229/304/1029
f 132/82/1030 124/248/1031 8/196/1032 133/143/1033
f 137/238/1034 97/293/1035 108/295/1036
f 166/211/1037 171/48/1038 154/349/1039 155/85/1040
f 167/87/1041 123/15/1042 166/211/1043
f 87/106/1044 198/291/1045 170/105/1046 152/94/1047
f 155/85/1048 156/195/1049 166/211/1050
f 153/30/1051 199/250/1052 163/324/1053
f 161/194/1054 26/51/1055 150/170/1056 252/36/1057
f 160/296/1058 159/197/1059 194/234/1060 149/292/1061
f 187/198/1062 186/217/1063 168/177/1064 6/243/1065
f 148/21/1066 193/2/1067 158/345/1068
f 17/284/1069 45/96/1070 169/63/1071 148/355/1072
f 240/245/1073 159/358/1074 36/167/1075 285/34/1076
f 33/125/1077 34/269/1078 264/335/1079 37/151/1080
f 27/149/1081 26/51/1082 161/194/1083
f 57/53/1084 198/291/1085 162/166/1086
f 123/15/1087 100/266/1088 171/48/1089 166/211/1090
f 156/195/1091 202/14/1092 167/87/1093 166/211/1094
f 192/158/1095 152/94/1096 170/105/1097 157/91/1098
f 6/243/1099 167/87/1100 202/14/1101
f 160/296/1102 149/292/1103 153/30/1104 44/320/1105
f 169/63/1106 163/324/1107 199/279/1108
f 193/2/1109 154/349/1110 171/48/1111 158/345/1112
f 276/17/1113 286/112/1114 165/283/1115
f 176/263/1116 76/111/1117 111/58/1118 289/126/1119
f 150/170/1120 26/51/1121 162/166/1122
f 142/22/1123 184/20/1124 141/18/1125
f 63/73/1126 183/77/1127 113/27/1128 66/8/1129
f 179/172/1130 81/249/1131 86/254/1132 85/259/1133
f 142/22/1134 172/124/1135 61/297/1136 143/329/1137
f 184/20/1138 183/77/1139 112/147/1140 114/271/1141
f 42/133/1142 89/241/1143 182/157/1144 181/9/1145
f 73/277/1146 70/116/1147 178/154/1148 177/89/1149
f 88/50/1150 42/133/1151 181/9/1152
f 173/356/1153 62/65/1154 3/67/1155 174/252/1156
f 176/46/1157 73/90/1158 177/137/1159
f 195/132/1160 71/206/1161 91/191/1162 153/276/1163
f 172/124/1164 62/65/1165 173/356/1166
f 191/338/1167 193/2/1168 64/84/1169
f 192/158/1170 174/252/1171 84/352/1172 152/94/1173
f 188/25/1174 199/43/1175 90/121/1176
f 143/329/1177 61/297/1178 187/198/1179 202/14/1180
f 274/235/1181 235/267/1182 95/315/1183
f 174/252/1184 192/158/1185 186/217/1186
f 156/195/1187 115/302/1188 143/329/1189 202/14/1190
f 155/85/1191 154/349/1192 191/338/1193 115/302/1194
f 148/355/1195 169/229/1196 188/212/1197 68/334/1198
f 271/16/1199 247/113/1200 190/199/1201
f 250/180/1202 200/7/1203 234/216/1204
f 251/159/1205 249/312/1206 272/108/1207
f 252/36/1208 150/170/1209 196/344/1210
f 240/245/1211 189/35/1212 194/98/1213
f 266/265/1214 269/127/1215 258/326/1216 205/209/1217
f 201/57/1218 247/113/1219 271/16/1220
f 116/129/1221 35/309/1222 203/281/1223
f 267/311/1224 266/265/1225 243/342/1226
f 267/311/1227 243/342/1228 246/128/1229
f 35/309/1230 264/335/1231 34/269/1232 224/134/1233
f 243/342/1234 273/242/1235 245/347/1236 246/128/1237
f 93/23/1238 164/86/1239 270/223/1240
f 233/226/1241 251/159/1242 275/144/1243
f 190/199/1244 251/159/1245 233/226/1246
f 151/186/1247 248/33/1248 250/180/1249
f 200/7/1250 235/267/1251 234/216/1252
f 271/16/1253 190/199/1254 276/17/1255
f 236/11/1256 274/235/1257 255/264/1258
f 189/35/1259 249/312/1260 72/346/1261
f 245/347/1262 241/205/1263 246/128/1264
f 234/216/1265 239/54/1266 245/347/1267
f 234/216/1268 235/267/1269 239/54/1270
f 273/242/1271 250/180/1272 234/216/1273 245/347/1274
f 240/245/1275 214/362/1276 272/108/1277
f 250/180/1278 273/242/1279 151/186/1280
f 151/186/1281 243/342/1282 27/149/1283 161/194/1284
f 243/342/1285 151/186/1286 273/242/1287
f 249/312/1288 189/35/1289 240/245/1290 272/108/1291
f 238/219/1292 225/101/1293 230/24/1294
f 197/287/1295 151/186/1296 161/194/1297 252/36/1298
f 233/226/1299 276/17/1300 190/199/1301
f 237/38/1302 271/16/1303 225/101/1304
f 201/57/1305 271/16/1306 237/38/1307
f 236/11/1308 239/54/1309 274/235/1310
f 214/362/1311 164/86/1312 275/144/1313 272/108/1314
f 286/112/1315 233/226/1316 275/144/1317
f 146/307/1318 201/57/1319 256/175/1320 255/264/1321
f 271/16/1322 276/17/1323 225/101/1324
f 236/11/1325 237/38/1326 238/219/1327
f 277/79/1328 231/190/1329 204/114/1330 145/189/1331
f 147/140/1332 228/286/1333 227/69/1334 281/185/1335
f 147/140/1336 253/203/1337 229/304/1338
f 118/107/1339 139/56/1340 219/339/1341 223/350/1342
f 227/69/1343 228/286/1344 255/264/1345
f 226/204/1346 213/240/1347 254/179/1348
f 213/240/1349 262/28/1350 145/189/1351
f 280/102/1352 253/203/1353 211/340/1354 210/74/1355
f 208/313/1356 278/359/1357 221/255/1358
f 278/359/1359 117/202/1360 215/32/1361
f 279/208/1362 75/103/1363 72/346/1364
f 282/332/1365 235/267/1366 200/7/1367 212/256/1368
f 228/286/1369 229/304/1370 232/215/1371
f 118/107/1372 232/215/1373 229/304/1374
f 281/185/1375 211/340/1376 147/140/1377
f 96/353/1378 211/340/1379 281/185/1380
f 282/332/1381 95/315/1382 235/267/1383
f 212/256/1384 200/7/1385 250/180/1386 209/160/1387
f 283/274/1388 213/240/1389 230/24/1390 225/101/1391
f 208/313/1392 249/312/1393 251/159/1394
f 190/199/1395 208/313/1396 251/159/1397
f 80/31/1398 217/41/1399 252/36/1400 196/344/1401
f 228/286/1402 232/215/1403 146/307/1404
f 284/161/1405 210/74/1406 211/340/1407 96/353/1408
f 216/261/1409 232/215/1410 215/32/1411
f 215/32/1412 232/215/1413 223/350/1414
f 255/264/1415 96/353/1416 227/69/1417
f 286/112/1418 261/37/1419 283/274/1420
f 261/37/1421 213/240/1422 283/274/1423
f 238/219/1424 241/205/1425 239/54/1426
f 226/204/1427 254/179/1428 241/205/1429
f 118/107/1430 229/304/1431 139/155/1432
f 209/220/1433 248/33/1434 210/74/1435 284/161/1436
f 292/258/1437 288/253/1438 289/126/1439 290/119/1440
f 72/346/1441 208/313/1442 279/208/1443
f 221/255/1444 279/208/1445 208/313/1446
f 116/129/1447 285/34/1448 35/309/1449
f 201/57/1450 146/307/1451 247/113/1452
f 223/350/1453 219/339/1454 222/182/1455
f 224/134/1456 131/169/1457 263/13/1458
f 197/287/1459 217/41/1460 248/33/1461
f 292/258/1462 294/71/1463 293/104/1464 291/174/1465
f 288/253/1466 292/258/1467 291/174/1468
f 287/42/1469 289/126/1470 288/253/1471
f 287/321/1472 30/260/1473 73/90/1474 176/46/1475
f 293/104/1476 297/218/1477 291/174/1478
f 293/104/1479 296/100/1480 297/218/1481
f 298/351/1482 291/174/1483 101/135/1484
f 298/351/1485 287/42/1486 288/253/1487
f 101/135/1488 295/301/1489 298/351/1490
#458 polygons

usemtl whiskers
s 2
f 307/225/1491 305/148/1492 302/150/1493 304/192/1494
f 306/39/1495 307/225/1496 304/192/1497 300/60/1498
f 301/59/1499 303/357/1500 307/225/1501 306/39/1502
f 303/357/1503 299/282/1504 305/148/1505 307/225/1506
f 316/299/1507 313/272/1508 311/47/1509 314/221/1510
f 315/306/1511 309/323/1512 313/272/1513 316/299/1514
f 310/95/1515 315/306/1516 316/299/1517 312/300/1518
f 316/299/1519 314/221/1520 308/62/1521
f 312/300/1522 316/299/1523 308/62/1524
#458 polygons

